<svg width="59" height="65" viewBox="0 0 59 65" fill="none" xmlns="http://www.w3.org/2000/svg">
<path fill-rule="evenodd" clip-rule="evenodd" d="M49.1113 0.874961L58.096 9.85943C58.6603 10.4237 58.9711 11.174 58.9709 11.9719V62.0125C58.9709 63.6598 57.6308 65 55.9835 65H9.17055C7.52333 65 6.18308 63.6599 6.18308 62.0125C6.18308 61.4867 6.60939 61.0604 7.13523 61.0604C7.66107 61.0604 8.08738 61.4867 8.08738 62.0125C8.08738 62.6099 8.57323 63.0957 9.17055 63.0957H55.9835C56.5807 63.0957 57.0667 62.6099 57.0667 62.0125V13.0988H47.8421C46.7559 13.0988 45.8723 12.215 45.8723 11.1288V1.9043H9.17055C8.57336 1.9043 8.08738 2.39015 8.08738 2.98746V35.5535C8.08738 36.0793 7.66107 36.5056 7.13523 36.5056C6.60939 36.5056 6.18308 36.0793 6.18308 35.5535V34.4699H4.08227C2.92382 34.4699 1.98145 35.4123 1.98145 36.5708C1.98145 37.7292 2.92382 38.6716 4.08227 38.6716H41.7362C43.3834 38.6716 44.7236 40.0118 44.7236 41.6592V55.9065C44.7236 57.5537 43.3835 58.8939 41.7362 58.8939H4.08227C1.87379 58.8939 0.0771484 57.0972 0.0771484 54.8887V36.5706C0.0771484 34.3623 1.87379 32.5655 4.08227 32.5655H6.18308V2.98746C6.18308 1.34024 7.52333 0 9.17055 0H46.9988C47.7968 0 48.547 0.310781 49.1113 0.874961ZM41.7362 40.5759H4.08227C3.31229 40.5759 2.59247 40.3576 1.98145 39.9794V54.8888C1.98145 56.0473 2.92382 56.9898 4.08227 56.9898H41.7362C42.3334 56.9898 42.8193 56.5039 42.8193 55.9066V41.6592C42.8193 41.0618 42.3335 40.5759 41.7362 40.5759ZM47.7766 2.23349V11.1288C47.7766 11.165 47.8061 11.1945 47.8421 11.1945H56.7378L47.7766 2.23349ZM36.9376 52.8876C36.143 53.5953 35.1203 53.9694 33.9803 53.9694C31.1203 53.9694 28.7935 51.6426 28.7935 48.7828C28.7935 45.9229 31.1202 43.5962 33.9801 43.5962C35.0195 43.5962 36.0224 43.9027 36.8807 44.4826C37.3165 44.777 37.4311 45.3689 37.1367 45.8047C36.8424 46.2404 36.2505 46.3549 35.8147 46.0606C35.2725 45.6943 34.6381 45.5007 33.9802 45.5007C32.1704 45.5007 30.698 46.9731 30.698 48.7829C30.698 50.5929 32.1704 52.0653 33.9802 52.0653C34.6554 52.0653 35.2242 51.8634 35.671 51.4655C35.7581 51.388 35.8414 51.3022 35.9184 51.2101C36.2562 50.8072 36.8568 50.7545 37.2598 51.0924C37.6627 51.4304 37.7154 52.0309 37.3775 52.4338C37.2413 52.5962 37.0932 52.7488 36.9376 52.8876ZM21.8834 53.9694C24.7433 53.9694 27.07 51.6426 27.07 48.7828C27.07 45.9229 24.7433 43.5962 21.8834 43.5962C19.0236 43.5962 16.6968 45.9229 16.6968 48.7828C16.6968 51.6426 19.0236 53.9694 21.8834 53.9694ZM21.8834 45.5004C23.6933 45.5004 25.1657 46.9729 25.1657 48.7826C25.1657 50.5926 23.6933 52.065 21.8834 52.065C20.0736 52.065 18.6011 50.5926 18.6011 48.7826C18.6011 46.9729 20.0736 45.5004 21.8834 45.5004ZM7.49875 53.5678C7.31962 53.3899 7.21831 53.148 7.21742 52.8954C7.21742 52.8954 7.20676 49.9162 7.20676 48.7735C7.20676 47.8365 7.20079 44.6752 7.20079 44.6752C7.20029 44.4223 7.30045 44.1797 7.47907 44.0009C7.6577 43.8219 7.90005 43.7213 8.15294 43.7213H10.4805C13.0351 43.7213 14.7515 45.7553 14.7515 48.7827C14.7515 51.6626 12.9909 53.7835 10.5652 53.8259C9.90261 53.8376 8.24346 53.8439 8.17313 53.8442H8.16957C7.91833 53.8442 7.67712 53.7449 7.49875 53.5678ZM12.8473 48.7828C12.8473 47.2567 12.2256 45.6257 10.4806 45.6257H9.10687L9.10705 45.7356C9.1087 46.7445 9.11106 48.1901 9.11106 48.7738C9.11106 49.4983 9.11537 50.9631 9.11855 51.9352C9.62509 51.9321 10.2087 51.9276 10.532 51.922C11.6844 51.9018 12.8473 50.9234 12.8473 48.7828Z" fill="url(#paint0_linear)"/>
<path fill-rule="evenodd" clip-rule="evenodd" d="M46.0434 25.362C45.5246 25.01 44.9148 24.8221 44.291 24.8221C43.8767 24.8221 43.4666 24.905 43.0839 25.066C42.8808 25.1514 42.6876 25.258 42.5072 25.3836L38.8604 21.6798C39.092 21.3299 39.2544 20.9352 39.3362 20.5177C39.4579 19.8963 39.3954 19.2522 39.1567 18.6668C38.918 18.0814 38.5137 17.5811 37.995 17.2291C37.4763 16.8771 36.8664 16.6892 36.2426 16.6892C35.406 16.6892 34.6037 17.0267 34.0122 17.6275C33.4207 18.2283 33.0883 19.0431 33.0883 19.8927C33.0883 20.5263 33.2733 21.1457 33.6199 21.6725C33.7372 21.8508 33.8712 22.0157 34.0195 22.1654L29.9485 26.3C29.909 26.2704 29.8687 26.2416 29.8278 26.2138C29.309 25.8618 28.6992 25.6739 28.0754 25.6739C27.6611 25.6739 27.251 25.7568 26.8683 25.9178C26.5771 26.0403 26.3062 26.2062 26.0643 26.4095L22.2665 22.5524C22.6446 22.1251 22.9034 21.6015 23.0141 21.036C23.1359 20.4146 23.0734 19.7704 22.8347 19.1851C22.5959 18.5997 22.1916 18.0994 21.6729 17.7474C21.1542 17.3954 20.5444 17.2075 19.9205 17.2075C19.5063 17.2075 19.0961 17.2904 18.7134 17.4513C18.3308 17.6123 17.983 17.8483 17.6901 18.1458C17.3972 18.4433 17.1649 18.7964 17.0064 19.1851C16.8479 19.5737 16.7663 19.9903 16.7663 20.411C16.7663 21.0446 16.9513 21.664 17.2979 22.1908C17.6445 22.7176 18.1371 23.1282 18.7134 23.3707C19.2898 23.6131 19.924 23.6766 20.5359 23.553C20.7074 23.5183 20.8749 23.4694 21.037 23.4071L25.1775 27.6123C25.172 27.6254 25.1666 27.6384 25.1612 27.6515C25.0027 28.0402 24.9211 28.4568 24.9211 28.8775C24.9211 29.5111 25.1061 30.1304 25.4527 30.6572C25.7993 31.1841 26.2919 31.5947 26.8683 31.8371C27.4446 32.0796 28.0789 32.143 28.6907 32.0194C29.3026 31.8958 29.8646 31.5907 30.3057 31.1427C30.7469 30.6947 31.0473 30.1239 31.169 29.5024C31.2907 28.881 31.2282 28.2369 30.9895 27.6515C30.9605 27.5804 30.929 27.5105 30.8952 27.442L35.3139 22.9542C35.8125 23.1103 36.3431 23.1387 36.8579 23.0347C37.1838 22.9689 37.4956 22.8515 37.7825 22.6885L41.5237 26.4882C41.4694 26.5891 41.4203 26.6931 41.3768 26.7997C41.2183 27.1884 41.1367 27.605 41.1367 28.0257C41.1367 28.6593 41.3217 29.2786 41.6683 29.8054C42.0149 30.3323 42.5075 30.7429 43.0839 30.9853C43.6602 31.2278 44.2945 31.2912 44.9063 31.1676C45.5182 31.044 46.0802 30.7389 46.5213 30.2909C46.9625 29.8429 47.2629 29.2721 47.3846 28.6506C47.5063 28.0292 47.4438 27.3851 47.2051 26.7997C46.9664 26.2144 46.5621 25.714 46.0434 25.362ZM45.2889 29.4526C45.011 29.6412 44.6843 29.7418 44.3501 29.7418C44.1282 29.7418 43.9085 29.6975 43.7034 29.6112C43.4984 29.525 43.3122 29.3985 43.1552 29.2392C42.9983 29.0798 42.8739 28.8906 42.7889 28.6824C42.704 28.4742 42.6603 28.251 42.6603 28.0257C42.6603 27.6862 42.7594 27.3544 42.9451 27.0722C43.1308 26.79 43.3947 26.57 43.7034 26.4401C44.0122 26.3102 44.352 26.2763 44.6798 26.3425C45.0075 26.4087 45.3086 26.5721 45.5449 26.8122C45.7813 27.0522 45.9422 27.358 46.0074 27.6909C46.0726 28.0238 46.0391 28.3688 45.9112 28.6824C45.7833 28.996 45.5668 29.264 45.2889 29.4526ZM37.2411 21.3197C36.9632 21.5083 36.6365 21.6089 36.3023 21.6089C36.0803 21.609 35.8611 21.5646 35.656 21.4784C35.4509 21.3922 35.2646 21.2658 35.1076 21.1064C34.9507 20.9471 34.8261 20.7579 34.7412 20.5496C34.6562 20.3414 34.6125 20.1181 34.6125 19.8927C34.6125 19.5533 34.7116 19.2215 34.8973 18.9393C35.083 18.6571 35.3469 18.4371 35.6556 18.3072C35.9644 18.1773 36.3042 18.1433 36.6319 18.2095C36.9597 18.2758 37.2608 18.4392 37.4971 18.6792C37.7334 18.9192 37.8944 19.225 37.9596 19.5579C38.0248 19.8908 37.9913 20.2359 37.8634 20.5495C37.7355 20.8631 37.5189 21.1311 37.2411 21.3197ZM29.0733 30.3044C28.7954 30.493 28.4687 30.5936 28.1345 30.5936H28.1362C27.9141 30.5939 27.6942 30.5496 27.489 30.4635C27.2838 30.3773 27.0973 30.251 26.9402 30.0916C26.7832 29.9322 26.6585 29.7429 26.5735 29.5346C26.4885 29.3263 26.4447 29.103 26.4447 28.8775C26.4447 28.538 26.5438 28.2062 26.7295 27.924C26.9152 27.6418 27.1791 27.4218 27.4878 27.2919C27.7966 27.162 28.1364 27.128 28.4642 27.1943C28.7919 27.2605 29.093 27.4239 29.3293 27.6639C29.5657 27.904 29.7266 28.2097 29.7918 28.5427C29.857 28.8756 29.8235 29.2206 29.6956 29.5342C29.5677 29.8478 29.3512 30.1158 29.0733 30.3044ZM20.9156 21.838C20.6378 22.0265 20.3111 22.1272 19.9768 22.1272H19.9797C19.7575 22.1276 19.5375 22.0834 19.3321 21.9974C19.1268 21.9113 18.9402 21.7849 18.783 21.6255C18.6258 21.4661 18.5011 21.2768 18.416 21.0684C18.3309 20.86 18.2871 20.6366 18.2871 20.411C18.2871 20.0716 18.3862 19.7398 18.5719 19.4576C18.7575 19.1753 19.0214 18.9554 19.3302 18.8255C19.639 18.6956 19.9787 18.6616 20.3065 18.7278C20.6343 18.794 20.9354 18.9575 21.1717 19.1975C21.408 19.4375 21.5689 19.7433 21.6341 20.0762C21.6993 20.4091 21.6659 20.7542 21.538 21.0678C21.4101 21.3814 21.1935 21.6494 20.9156 21.838Z" fill="url(#paint1_linear)"/>
<defs>
<linearGradient id="paint0_linear" x1="3.66815" y1="1.62899e-06" x2="72.922" y2="41.9867" gradientUnits="userSpaceOnUse">
<stop stop-color="#4388DD"/>
<stop offset="1" stop-color="#FF4581"/>
</linearGradient>
<linearGradient id="paint1_linear" x1="45.5746" y1="16.6892" x2="27.8202" y2="40.3685" gradientUnits="userSpaceOnUse">
<stop stop-color="#4388DD"/>
<stop offset="1" stop-color="#FF4581"/>
</linearGradient>
</defs>
</svg>
