<svg width="438" height="393" viewBox="0 0 438 393" fill="none" xmlns="http://www.w3.org/2000/svg">
<path d="M110.641 368.891L109.805 368.578C109.622 368.509 91.3528 361.509 82.7948 345.638C74.2364 329.766 78.427 310.657 78.4704 310.466L78.6676 309.596L79.5025 309.909C79.6861 309.978 97.9548 316.977 106.513 332.849C115.072 348.72 110.881 367.83 110.838 368.021L110.641 368.891ZM84.1652 344.899C91.4007 358.319 105.837 365.197 109.495 366.767C110.191 362.847 112.372 346.994 105.143 333.587C97.9145 320.183 83.472 313.293 79.8126 311.719C79.1168 315.642 76.9365 331.494 84.1652 344.899V344.899Z" fill="#3F3D56"/>
<path d="M89.3348 340.071C104.715 349.324 110.638 367.703 110.638 367.703C110.638 367.703 91.6254 371.08 76.2456 361.827C60.8657 352.574 54.9424 334.195 54.9424 334.195C54.9424 334.195 73.9549 330.818 89.3348 340.071Z" fill="#3EAF7C"/>
<path d="M382.105 368.021C382.062 367.83 377.871 348.72 386.43 332.849C394.988 316.977 413.257 309.978 413.44 309.909L414.275 309.596L414.472 310.466C414.516 310.657 418.706 329.766 410.148 345.638C401.59 361.509 383.321 368.509 383.137 368.578L382.302 368.891L382.105 368.021ZM413.13 311.719C409.471 313.293 395.028 320.183 387.8 333.587C380.571 346.993 382.752 362.847 383.447 366.767C387.105 365.197 401.542 358.319 408.778 344.899C416.006 331.494 413.826 315.642 413.13 311.719Z" fill="#3F3D56"/>
<path d="M403.608 340.071C388.228 349.324 382.305 367.703 382.305 367.703C382.305 367.703 401.317 371.08 416.697 361.827C432.077 352.574 438 334.195 438 334.195C438 334.195 418.988 330.818 403.608 340.071Z" fill="#3EAF7C"/>
<path d="M414.633 367.239H48.0481V368.796H414.633V367.239Z" fill="#3F3D56"/>
<path d="M189 0H0V212H189V0Z" fill="#4388DD"/>
<path d="M174 189H10V197H174V189Z" fill="#EFEDF9"/>
<path d="M38 189H10V197H38V189Z" fill="#FF4581"/>
<path d="M10.0171 183.158L10 171.288L23.4377 177.204L10.0171 183.158Z" fill="#FF4581"/>
<path d="M35.7255 171H31.1113V182.865H35.7255V171Z" fill="#FF4581"/>
<path d="M44.9545 171H40.3403V182.865H44.9545V171Z" fill="#FF4581"/>
<path d="M179 165H10V19H179V165ZM10.6353 163.679H178.365V20.3213H10.6353V163.679Z" fill="#EFEDF9"/>
<path d="M53.9823 99.9647C71.0934 99.9647 84.9647 86.0934 84.9647 68.9823C84.9647 51.8713 71.0934 38 53.9823 38C36.8713 38 23 51.8713 23 68.9823C23 86.0934 36.8713 99.9647 53.9823 99.9647Z" fill="#FF4581"/>
<path d="M131.552 67.2737H92V68.5921H131.552V67.2737Z" fill="#EFEDF9"/>
<path d="M146.054 73.8649C144.881 73.8649 143.734 73.517 142.758 72.8651C141.783 72.2132 141.022 71.2867 140.573 70.2027C140.124 69.1187 140.007 67.9259 140.236 66.7751C140.464 65.6243 141.03 64.5672 141.859 63.7376C142.689 62.9079 143.746 62.3429 144.897 62.114C146.047 61.8851 147.24 62.0026 148.324 62.4516C149.408 62.9006 150.335 63.661 150.987 64.6366C151.639 65.6121 151.986 66.7591 151.986 67.9324C151.986 69.5058 151.361 71.0148 150.249 72.1273C149.136 73.2399 147.627 73.8649 146.054 73.8649ZM146.054 63.3183C145.141 63.3183 144.249 63.5889 143.491 64.0959C142.732 64.6029 142.14 65.3236 141.791 66.1667C141.442 67.0098 141.351 67.9376 141.529 68.8326C141.707 69.7277 142.146 70.5498 142.791 71.1951C143.437 71.8404 144.259 72.2799 145.154 72.4579C146.049 72.636 146.977 72.5446 147.82 72.1953C148.663 71.8461 149.384 71.2547 149.891 70.4959C150.398 69.7371 150.668 68.845 150.668 67.9324C150.668 66.7087 150.182 65.5351 149.317 64.6698C148.451 63.8045 147.278 63.3183 146.054 63.3183Z" fill="#EFEDF9"/>
<path d="M146.054 132.534C144.881 132.534 143.734 132.186 142.758 131.534C141.783 130.882 141.022 129.955 140.573 128.871C140.124 127.787 140.007 126.595 140.236 125.444C140.464 124.293 141.03 123.236 141.859 122.406C142.689 121.577 143.746 121.012 144.897 120.783C146.047 120.554 147.24 120.671 148.324 121.12C149.408 121.569 150.335 122.33 150.987 123.305C151.639 124.281 151.986 125.428 151.986 126.601C151.986 128.175 151.361 129.683 150.249 130.796C149.136 131.909 147.627 132.534 146.054 132.534ZM146.054 121.987C145.141 121.987 144.249 122.258 143.491 122.765C142.732 123.272 142.14 123.992 141.791 124.835C141.442 125.679 141.351 126.606 141.529 127.501C141.707 128.396 142.146 129.219 142.791 129.864C143.437 130.509 144.259 130.949 145.154 131.127C146.049 131.305 146.977 131.213 147.82 130.864C148.663 130.515 149.384 129.923 149.891 129.165C150.398 128.406 150.668 127.514 150.668 126.601C150.668 125.377 150.182 124.204 149.317 123.338C148.451 122.473 147.278 121.987 146.054 121.987Z" fill="#EFEDF9"/>
<path d="M124.96 132.534C123.786 132.534 122.639 132.186 121.664 131.534C120.688 130.882 119.928 129.955 119.479 128.871C119.03 127.787 118.912 126.595 119.141 125.444C119.37 124.293 119.935 123.236 120.765 122.406C121.594 121.577 122.651 121.012 123.802 120.783C124.953 120.554 126.146 120.671 127.23 121.12C128.314 121.569 129.24 122.33 129.892 123.305C130.544 124.281 130.892 125.428 130.892 126.601C130.892 128.175 130.267 129.683 129.154 130.796C128.042 131.909 126.533 132.534 124.96 132.534ZM124.96 121.987C124.047 121.987 123.155 122.258 122.396 122.765C121.637 123.272 121.046 123.992 120.697 124.835C120.347 125.679 120.256 126.606 120.434 127.501C120.612 128.396 121.052 129.219 121.697 129.864C122.342 130.509 123.164 130.949 124.059 131.127C124.954 131.305 125.882 131.213 126.725 130.864C127.568 130.515 128.289 129.923 128.796 129.165C129.303 128.406 129.574 127.514 129.574 126.601C129.574 125.377 129.088 124.204 128.222 123.338C127.357 122.473 126.183 121.987 124.96 121.987Z" fill="#EFEDF9"/>
<path d="M146.713 79.1392H145.395V112.099H146.713V79.1392Z" fill="#EFEDF9"/>
<path d="M270.556 94.1625C270.556 94.1625 259.651 92.6045 254.198 112.858C248.745 133.112 247.187 134.67 247.187 134.67C247.187 134.67 279.125 139.344 279.904 137.786C280.683 136.228 286.915 98.8364 270.556 94.1625Z" fill="#2F2E41"/>
<path d="M264.324 86.3725C275.94 86.3725 285.357 76.9559 285.357 65.34C285.357 53.724 275.94 44.3074 264.324 44.3074C252.708 44.3074 243.292 53.724 243.292 65.34C243.292 76.9559 252.708 86.3725 264.324 86.3725Z" fill="#A0616A"/>
<path d="M254.977 82.4776C254.977 82.4776 261.987 100.394 259.65 102.731C257.313 105.068 288.473 108.184 288.473 108.184C288.473 108.184 290.81 96.4994 281.462 89.4885C281.462 89.4885 277.567 77.8037 278.346 75.4667C279.125 73.1298 254.977 82.4776 254.977 82.4776Z" fill="#A0616A"/>
<path d="M273.672 90.2674C265.687 93.2827 258.494 98.078 252.639 104.289C243.292 114.416 238.618 117.532 238.618 117.532C238.618 117.532 227.712 121.427 231.607 140.122C233.554 149.47 232.191 159.987 230.341 168.166C227.515 180.859 226.111 193.828 226.154 206.832V214.905C226.154 214.905 154.487 365.249 178.636 375.376C202.784 385.503 224.596 388.619 226.154 386.282C227.712 383.945 255.755 262.423 255.755 262.423C255.755 262.423 263.545 392.513 283.02 392.513C302.494 392.513 334.433 387.061 334.433 387.061L294.705 231.264C294.705 231.264 304.052 204.778 280.683 186.083L277.567 177.514C290.49 177.52 296.398 95.7271 283.02 88.7094C283.02 88.7094 279.904 86.3725 273.672 90.2674Z" fill="#2C3E50"/>
<path d="M254.197 132.333L243.292 161.155L217.585 214.905C217.585 214.905 205.9 249.959 215.248 249.959C224.596 249.959 231.607 216.463 231.607 216.463L260.429 171.282L276.788 130.775L254.197 132.333Z" fill="#A0616A"/>
<path d="M202.395 392.514C209.924 392.514 216.027 389.026 216.027 384.724C216.027 380.421 209.924 376.934 202.395 376.934C194.866 376.934 188.763 380.421 188.763 384.724C188.763 389.026 194.866 392.514 202.395 392.514Z" fill="#4388DD"/>
<path d="M306.779 392.514C314.308 392.514 320.411 389.026 320.411 384.724C320.411 380.421 314.308 376.934 306.779 376.934C299.25 376.934 293.146 380.421 293.146 384.724C293.146 389.026 299.25 392.514 306.779 392.514Z" fill="#4388DD"/>
<path d="M272.444 35.8457H272.443C271.361 35.8478 270.28 35.9552 269.218 36.1664C267.299 35.2348 265.194 34.7497 263.061 34.7473H262.502C251.728 34.7473 242.994 44.4969 242.994 56.5237V56.5237H246.604L247.187 52.0858L248.042 56.5237H251.049C250.114 60.0847 249.644 63.7519 249.652 67.4337V89.5985H255.111L258.271 81.3862L257.481 89.5985H292.565L295.438 82.1329L294.72 89.5985H298.67V72.1951C298.67 52.1199 286.928 35.8457 272.444 35.8457Z" fill="#2F2E41"/>
<path d="M264.708 30.9856H269.857C270.923 30.9856 271.945 31.4089 272.698 32.1623C273.452 32.9157 273.875 33.9376 273.875 35.0031V58.6096C273.875 59.6751 273.452 60.697 272.698 61.4504C271.945 62.2038 270.923 62.6271 269.857 62.6271H264.708C264.181 62.6271 263.658 62.5232 263.171 62.3213C262.684 62.1194 262.241 61.8235 261.868 61.4504C261.495 61.0774 261.199 60.6345 260.997 60.1471C260.795 59.6596 260.691 59.1372 260.691 58.6096V35.0031C260.691 33.9376 261.114 32.9157 261.868 32.1623C262.621 31.4089 263.643 30.9856 264.708 30.9856Z" fill="#D0CDE1"/>
<path d="M267.283 80.4256C273.836 80.4256 279.149 75.1132 279.149 68.56C279.149 62.0069 273.836 56.6945 267.283 56.6945C260.73 56.6945 255.417 62.0069 255.417 68.56C255.417 75.1132 260.73 80.4256 267.283 80.4256Z" fill="#FF4581"/>
<path d="M267.283 74.4922C270.559 74.4922 273.215 71.8362 273.215 68.5598C273.215 65.2834 270.559 62.6273 267.283 62.6273C264.006 62.6273 261.35 65.2834 261.35 68.5598C261.35 71.8362 264.006 74.4922 267.283 74.4922Z" fill="#D0CDE1"/>
<path d="M267.283 71.1966C268.739 71.1966 269.919 70.0162 269.919 68.56C269.919 67.1038 268.739 65.9233 267.283 65.9233C265.826 65.9233 264.646 67.1038 264.646 68.56C264.646 70.0162 265.826 71.1966 267.283 71.1966Z" fill="#FF4581"/>
<path d="M52.3344 58.1055C48.2527 58.1055 46.4016 60.5419 46.4016 64.0383H48.3792C48.4465 61.5584 50.0602 60.1464 52.3344 60.0831C54.3318 60.1464 55.2138 61.234 55.281 63.0772C55.281 64.0304 54.5928 65.1418 53.2164 66.4153C51.6304 67.8155 51.3456 68.828 51.3456 69.9711V71.9487H53.3232V69.9711C53.3232 69.3382 53.6634 68.48 54.7668 67.4635C56.4201 66 57.2468 64.5406 57.2468 63.0772C57.2468 60.1543 55.5025 58.1055 52.3344 58.1055ZM51.3456 75.9038H53.3232V73.9263H51.3456V75.9038ZM68.1552 69.5914V55.8985C68.1552 55.8985 67.7834 53.1615 65.1888 53.1615C62.5942 53.1615 37.5024 53.1615 37.5024 53.1615V81.4569C37.5024 81.4569 37.8742 83.7589 41.4576 83.8142C45.041 83.8696 52.3344 83.8142 52.3344 83.8142C51.9033 83.8696 68.1552 69.5914 68.1552 69.5914ZM51.3456 81.8366C51.3456 81.8366 42.1973 81.8089 41.4576 81.8366C39.1715 81.9236 39.48 79.6296 39.48 79.6296V54.9888C39.48 54.9888 63.8915 54.9888 65.1888 54.9888C66.4861 54.9888 66.1776 56.0725 66.1776 56.8161V68.6817L51.3456 81.8366ZM72.4901 75.1484L69.053 71.9407L68.4439 71.3752L67.8388 71.9407L65.26 74.3455L55.8071 83.1616L55.6212 83.3317L55.5698 83.569L54.312 88.7582L60.0193 87.722L60.2764 87.6745L60.4623 87.5044L69.9152 78.6883L72.494 76.2835L73.1031 75.718L72.4901 75.1484ZM59.4261 86.1953L56.6495 86.7134L57.2032 84.1227L65.8651 76.0462L68.0879 78.1188L59.4261 86.1953ZM69.3061 76.9836L67.0833 74.9111L68.4479 73.6415L70.6707 75.714L69.3061 76.9836Z" fill="white"/>
</svg>
