<svg width="1300" height="397" viewBox="0 0 1300 397" fill="none" xmlns="http://www.w3.org/2000/svg">
<path d="M597.857 55.2144L598.649 55.6358C583.062 84.8684 566.477 106.034 547.971 120.35C531.411 133.16 513.626 140.179 493.619 141.805C456.439 144.827 418.274 128.838 377.864 111.91C324.976 89.7566 270.299 66.8449 217.471 89.7205C170.696 109.959 179.775 142.419 191.268 183.498C199.818 214.043 209.497 248.67 197.272 285.09C183.149 327.157 142.139 363.758 71.8979 397L71.5137 396.181C141.526 363.048 182.381 326.615 196.419 284.813C208.561 248.658 198.917 214.176 190.403 183.751C184.807 163.765 179.535 144.887 181.684 128.838C184.074 111.019 195.339 98.3289 217.111 88.9018C270.287 65.8817 325.156 88.8536 378.212 111.079C418.514 127.959 456.583 143.9 493.546 140.914C535.338 137.518 568.483 110.284 597.857 55.2144Z" fill="url(#paint0_linear)"/>
<path d="M602.612 52.1443L603.321 52.5537C543.096 156.65 471.714 133.305 396.153 108.611C339.603 90.1299 281.143 71.0107 222.623 102.868C175.68 128.428 182.057 159.624 189.442 195.755C194.774 221.845 200.827 251.415 186.908 283.007C170.96 319.223 131.21 352.429 65.377 384.515L65.0168 383.78C130.67 351.779 170.288 318.705 186.164 282.682C199.974 251.331 193.958 221.893 188.638 195.923C181.192 159.479 174.755 127.995 222.227 102.158C281.059 70.1318 339.699 89.2991 396.406 107.84C471.642 132.426 542.723 155.662 602.612 52.1443Z" fill="url(#paint1_linear)"/>
<path d="M607.356 49.0862L607.98 49.4835C582.653 89.2991 553.94 110.345 517.613 115.69C485.32 120.446 451.347 112.211 415.38 103.482C355.011 88.8416 292.6 73.7196 227.739 116.015C180.784 146.645 183.834 175.865 187.064 206.795C191.748 251.632 197.056 302.452 58.8441 372.017L58.5079 371.355C196.263 302.006 190.979 251.463 186.332 206.868C183.077 175.697 180.003 146.259 227.331 115.389C256.477 96.3785 287.952 87.3607 323.583 87.734C355.047 88.0831 385.814 95.5478 415.548 102.748C485.801 119.796 552.151 135.881 607.356 49.0862Z" fill="url(#paint2_linear)"/>
<path d="M612.1 46.0282L612.628 46.4134C589.499 78.9209 563.235 96.6916 530.006 102.314C500.38 107.335 468.904 102.097 435.579 96.5471C374.237 86.3374 304.717 74.7671 232.843 129.187C186.128 164.548 185.215 189.88 184.254 216.68C182.921 253.799 181.552 292.17 52.2993 359.556L51.9991 358.978C180.916 291.76 182.285 253.57 183.606 216.644C184.567 189.675 185.479 164.199 232.447 128.645C264.679 104.253 299.085 90.9125 337.645 87.8905C371.607 85.2177 404.187 90.6476 435.687 95.8849C503.31 107.142 561.698 116.858 612.1 46.0282Z" fill="url(#paint3_linear)"/>
<path d="M616.855 42.958L617.299 43.3192C596.44 68.9158 572.758 83.3756 542.759 88.8416C515.967 93.7298 487.278 90.8523 456.907 87.8062C391.626 81.2686 317.626 73.8641 237.947 142.322C192.156 181.668 186.452 204.725 181.42 225.084C173.999 255.123 167.586 281.069 45.7664 347.071L45.4902 346.565C167.093 280.684 173.47 254.858 180.868 224.951C185.924 204.52 191.64 181.355 237.574 141.901C317.434 73.2862 391.566 80.7027 456.955 87.2524C518.381 93.3927 571.425 98.7022 616.855 42.958Z" fill="url(#paint4_linear)"/>
<path d="M621.599 39.8998L621.947 40.249C581.561 82.0632 534.293 79.9081 479.568 77.4158C410.156 74.2614 331.473 70.6735 243.038 155.494C201.271 195.562 189.382 215.645 180.7 230.321C166.313 254.642 159.083 266.862 39.2214 334.598L38.9812 334.164C158.735 266.489 165.928 254.316 180.279 230.068C188.974 215.368 200.887 195.249 242.702 155.133C282.212 117.243 323.379 93.6455 368.557 82.9902C408.102 73.6715 444.442 75.3209 479.592 76.9222C534.209 79.4024 581.368 81.5575 621.599 39.8998Z" fill="url(#paint5_linear)"/>
<path d="M626.354 36.8417L626.618 37.1548C591.792 66.0382 551.082 65.7854 503.946 65.5085C433.826 65.0871 346.568 64.5694 248.142 168.641C237.046 180.368 228.003 190.024 220.029 198.536C177.181 244.263 177.181 244.263 145.285 260.192C126.083 269.776 93.9465 285.837 32.6885 322.1L32.4843 321.751C93.7543 285.475 125.89 269.414 145.105 259.831C176.941 243.938 176.941 243.938 219.729 198.259C227.703 189.747 236.746 180.091 247.842 168.364C291.735 121.951 336.901 92.2248 385.91 77.5001C428.638 64.6537 468.652 64.8945 503.934 65.0991C551.01 65.4001 591.636 65.6289 626.354 36.8417Z" fill="url(#paint6_linear)"/>
<path d="M631.098 33.7956L631.266 34.0726C602.444 51.5543 569.095 51.9998 530.462 52.5175C456.006 53.5048 363.357 54.7449 253.222 181.813C225.301 214.031 206.351 232.765 191.784 242.566C177.805 251.969 167.742 253.353 154.988 255.099C132.58 258.169 101.896 262.371 26.1436 309.627L25.9755 309.35C101.8 262.058 132.519 257.844 154.952 254.774C167.658 253.04 177.697 251.656 191.604 242.301C206.147 232.512 225.073 213.791 252.97 181.596C363.201 54.4198 455.946 53.1797 530.462 52.1924C569.047 51.6747 602.36 51.2292 631.098 33.7956Z" fill="url(#paint7_linear)"/>
<path d="M635.841 30.7496L635.925 30.9783C613.793 39.0811 588.754 39.1654 559.764 39.2497C484.984 39.4905 382.559 39.8156 258.314 194.984C201.163 266.368 179.823 263.202 150.305 258.819C123.837 254.894 90.9083 249.994 19.6108 297.142L19.4787 296.937C90.8483 249.741 123.837 254.642 150.341 258.566C179.775 262.937 201.055 266.091 258.122 194.828C313.291 125.924 368.449 81.4251 426.728 58.7903C476.998 39.2738 520.963 39.1293 559.752 39.0089C588.742 38.9126 613.757 38.8283 635.841 30.7496Z" fill="url(#paint8_linear)"/>
<path d="M554.336 26.0661C567.966 26.0661 580.816 26.7644 592.681 27.4025C609.926 28.3296 626.222 29.2085 640.585 27.7035L640.597 27.8601C626.222 29.365 609.926 28.4861 592.669 27.5591C558.623 25.717 519.138 23.598 473.876 37.0224C491.397 31.8091 509.386 28.5102 528.337 27.0173C537.259 26.331 545.942 26.0661 554.336 26.0661ZM396.898 73.9002C356.199 101.086 311.754 143.225 263.406 208.156C237.166 243.384 215.37 262.648 194.798 268.788C176.208 274.339 160.212 268.644 143.28 262.624C112.416 251.644 77.4462 239.207 13.0899 284.669L12.9938 284.536C41.7194 264.237 67.1905 253.714 90.8482 252.354C111.564 251.162 127.716 256.917 143.34 262.467C160.248 268.487 176.22 274.158 194.75 268.632C215.286 262.504 237.07 243.252 263.274 208.06C280.459 184.979 297.872 163.886 315.02 145.356C331.161 127.911 347.553 112.235 363.717 98.7624C374.693 89.6242 385.802 81.3047 396.898 73.9002Z" fill="url(#paint9_linear)"/>
<path d="M581.02 14.0263C599.118 15.6156 615.51 18.8663 630.353 21.804C635.577 22.8394 640.525 23.8147 645.292 24.6815L645.28 24.7658C640.501 23.911 635.565 22.9237 630.329 21.8883C615.39 18.9265 598.962 15.6637 581.02 14.0263ZM331.377 140.444C311.238 163.308 290.282 190.06 268.498 221.327C261.436 231.465 254.459 240.41 247.758 247.935C241.345 255.135 234.956 261.275 228.784 266.188C217.315 275.302 206.243 280.575 194.894 282.309C173.71 285.536 154.868 275.868 134.909 265.622C116.451 256.134 96.6246 245.961 73.0509 245.961C53.8125 245.961 32.0881 252.739 6.54496 272.196L6.49695 272.135C13.4021 266.874 20.2832 262.347 26.9362 258.687C33.253 255.207 39.5818 252.402 45.7304 250.343C57.0309 246.563 67.9831 245.13 79.1755 245.985C99.8911 247.55 117.712 256.712 134.945 265.562C152.214 274.435 168.667 282.875 186.5 282.875C189.25 282.875 192.036 282.67 194.87 282.237C218.588 278.613 241.958 259.253 268.414 221.291C288.469 192.504 308.692 166.402 328.519 143.695C329.479 142.599 330.428 141.516 331.377 140.444Z" fill="url(#paint10_linear)"/>
<defs>
<linearGradient id="paint0_linear" x1="566.508" y1="397" x2="156.002" y2="-26.6425" gradientUnits="userSpaceOnUse">
<stop stop-color="#4388DD"/>
<stop offset="1" stop-color="#FF4581"/>
</linearGradient>
<linearGradient id="paint1_linear" x1="570.498" y1="384.515" x2="172.39" y2="-46.923" gradientUnits="userSpaceOnUse">
<stop stop-color="#4388DD"/>
<stop offset="1" stop-color="#FF4581"/>
</linearGradient>
<linearGradient id="paint2_linear" x1="574.477" y1="372.017" x2="189.667" y2="-66.1028" gradientUnits="userSpaceOnUse">
<stop stop-color="#4388DD"/>
<stop offset="1" stop-color="#FF4581"/>
</linearGradient>
<linearGradient id="paint3_linear" x1="578.444" y1="359.556" x2="207.673" y2="-84.0694" gradientUnits="userSpaceOnUse">
<stop stop-color="#4388DD"/>
<stop offset="1" stop-color="#FF4581"/>
</linearGradient>
<linearGradient id="paint4_linear" x1="582.434" y1="347.071" x2="226.422" y2="-100.841" gradientUnits="userSpaceOnUse">
<stop stop-color="#4388DD"/>
<stop offset="1" stop-color="#FF4581"/>
</linearGradient>
<linearGradient id="paint5_linear" x1="586.401" y1="334.598" x2="245.755" y2="-116.303" gradientUnits="userSpaceOnUse">
<stop stop-color="#4388DD"/>
<stop offset="1" stop-color="#FF4581"/>
</linearGradient>
<linearGradient id="paint6_linear" x1="590.392" y1="322.1" x2="265.662" y2="-130.462" gradientUnits="userSpaceOnUse">
<stop stop-color="#4388DD"/>
<stop offset="1" stop-color="#FF4581"/>
</linearGradient>
<linearGradient id="paint7_linear" x1="594.359" y1="309.627" x2="285.941" y2="-143.24" gradientUnits="userSpaceOnUse">
<stop stop-color="#4388DD"/>
<stop offset="1" stop-color="#FF4581"/>
</linearGradient>
<linearGradient id="paint8_linear" x1="598.338" y1="297.142" x2="306.562" y2="-154.647" gradientUnits="userSpaceOnUse">
<stop stop-color="#4388DD"/>
<stop offset="1" stop-color="#FF4581"/>
</linearGradient>
<linearGradient id="paint9_linear" x1="602.329" y1="284.669" x2="324.837" y2="-165.956" gradientUnits="userSpaceOnUse">
<stop stop-color="#4388DD"/>
<stop offset="1" stop-color="#FF4581"/>
</linearGradient>
<linearGradient id="paint10_linear" x1="606.342" y1="282.941" x2="315.042" y2="-180.08" gradientUnits="userSpaceOnUse">
<stop stop-color="#4388DD"/>
<stop offset="1" stop-color="#FF4581"/>
</linearGradient>
</defs>
</svg>
