<svg width="209" height="212" viewBox="0 0 209 212" fill="none" xmlns="http://www.w3.org/2000/svg">
<path d="M90.5 211.5V120.5H208.5V211.5H90.5Z" stroke="#3F3D56"/>
<path d="M159 88.5658V80.8948H149.237V88.5658H159Z" fill="#3F3D56"/>
<path d="M33.4722 153.421H79.4999V177.829H19.5262L33.4722 153.421Z" fill="#3EAF7C"/>
<path d="M13.9143 187.592H79.4999V212H0L13.9143 187.592Z" fill="#3EAF7C"/>
<path d="M43.1534 120.414C41.8747 118.997 40.6406 117.509 39.4853 115.993L40.2281 115.427C41.3682 116.923 42.5857 118.39 43.8472 119.788L43.1534 120.414ZM36.1963 111.284C35.1703 109.676 34.199 108.005 33.3092 106.318L34.1358 105.882C35.0134 107.547 35.9715 109.195 36.9837 110.781L36.1963 111.284ZM30.8437 101.13C30.0982 99.3778 29.4154 97.5704 28.8139 95.7576L29.7008 95.4632C30.294 97.2521 30.9679 99.0354 31.7034 100.764L30.8437 101.13ZM28.1356 90.0156L27.2281 90.2371C26.7754 88.3813 26.3944 86.4873 26.0955 84.6081L27.0183 84.4614C27.3131 86.3158 27.689 88.1844 28.1356 90.0156L28.1356 90.0156ZM26.3599 78.8346L25.4283 78.9048C25.2852 77.003 25.2199 75.0721 25.2345 73.1655L26.1689 73.1725C26.1544 75.0536 26.2188 76.9586 26.3599 78.8346L26.3599 78.8346ZM26.448 67.5139L25.5177 67.4292C25.6906 65.5294 25.9457 63.6126 26.2759 61.7324L27.1961 61.8939C26.8703 63.7489 26.6186 65.6397 26.448 67.5139L26.448 67.5139ZM149.259 31.4841C148.104 30.0013 146.871 28.5475 145.595 27.1627L146.282 26.5295C147.576 27.9332 148.825 29.4069 149.996 30.9098L149.259 31.4841ZM28.4063 56.3556L27.5027 56.1188C27.9864 54.2747 28.5534 52.4268 29.1879 50.6263L30.0689 50.9368C29.443 52.7133 28.8835 54.5365 28.4063 56.3556L28.4063 56.3556ZM141.586 23.1581C140.202 21.8849 138.747 20.6531 137.262 19.4971L137.836 18.7598C139.341 19.9315 140.816 21.18 142.219 22.4704L141.586 23.1581ZM32.1713 45.6732L31.3183 45.2914C32.0981 43.5502 32.9593 41.8205 33.8786 40.1495L34.697 40.5997C33.7901 42.2485 32.9402 43.9553 32.1713 45.6732ZM132.651 16.2027C131.076 15.1718 129.439 14.1939 127.786 13.2961L128.232 12.4751C129.907 13.3851 131.567 14.3761 133.163 15.4207L132.651 16.2027ZM37.6294 35.7504L36.8505 35.2347C37.9031 33.6448 39.0349 32.0788 40.2144 30.5802L40.9485 31.1579C39.7847 32.6367 38.6681 34.1817 37.6293 35.7504L37.6294 35.7504ZM122.699 10.7975C120.977 10.0377 119.202 9.34003 117.425 8.72417L117.73 7.84117C119.532 8.46561 121.331 9.1725 123.076 9.94259L122.699 10.7975ZM44.632 26.8541L43.9479 26.218C45.2471 24.8207 46.6196 23.4615 48.0272 22.1781L48.6566 22.8686C47.2679 24.1346 45.914 25.4756 44.632 26.8541ZM111.997 7.09103C110.172 6.62293 108.306 6.22592 106.454 5.91107L106.61 4.98978C108.488 5.30915 110.379 5.71163 112.229 6.18582L111.997 7.09103ZM52.9956 19.2294L52.4252 18.4894C53.9355 17.3259 55.5125 16.2116 57.1125 15.1779L57.6194 15.9628C56.0411 16.9824 54.4853 18.0815 52.9956 19.2294ZM100.831 5.19332C98.957 5.03285 97.0519 4.94918 95.1691 4.94478L95.1714 4.01063C97.0798 4.01501 99.0109 4.09972 100.911 4.26244L100.831 5.19332ZM62.5015 13.0887L62.0616 12.2646C63.7415 11.3672 65.4821 10.5283 67.2344 9.77105L67.605 10.6287C65.8761 11.3759 64.1592 12.2034 62.5015 13.0887ZM89.5059 5.16678C87.6341 5.31788 85.7419 5.54965 83.8816 5.85593L83.73 4.93393C85.6154 4.62372 87.5334 4.38857 89.4306 4.23557L89.5059 5.16678ZM72.8937 8.59769L72.5946 7.71252C74.3985 7.10298 76.2584 6.55846 78.1059 6.0971L78.3324 7.0037C76.5077 7.4589 74.6741 7.99637 72.8937 8.59769Z" fill="#3F3D56"/>
<path d="M174.342 212L130.865 136.337L121.11 119.363L98.5859 80.1556L87.3887 60.6711L76.1915 80.1556L53.6671 119.363L43.9121 136.337L39.75 143.579H79.929V119.363H89.8753V212H174.342ZM118.556 172.996C119.66 172.996 120.739 173.325 121.658 173.942C122.576 174.558 123.291 175.434 123.714 176.459C124.137 177.484 124.247 178.612 124.032 179.7C123.816 180.789 123.284 181.788 122.504 182.573C121.723 183.357 120.728 183.892 119.645 184.108C118.562 184.325 117.439 184.214 116.419 183.789C115.399 183.364 114.527 182.645 113.914 181.723C113.3 180.8 112.973 179.716 112.973 178.606C112.974 177.119 113.563 175.693 114.61 174.641C115.656 173.589 117.076 172.998 118.556 172.996ZM86.3517 99.3046L80.0869 92.5557L86.8035 86.2608L93.0683 93.0097L86.3517 99.3046Z" fill="#4388DD"/>
<path d="M151.677 100.421C154.181 100.421 156.21 98.3918 156.21 95.8884C156.21 93.3849 154.181 91.3555 151.677 91.3555C149.174 91.3555 147.145 93.3849 147.145 95.8884C147.145 98.3918 149.174 100.421 151.677 100.421Z" fill="#F2F2F2"/>
<path d="M149.238 42.5473C141.721 44.0083 134.803 47.6856 129.357 53.114C123.912 58.5425 120.184 65.4784 118.645 73.0446C117.106 80.6108 117.826 88.4675 120.712 95.6212C123.599 102.775 128.523 108.904 134.862 113.234C141.201 117.564 148.67 119.9 156.325 119.947C163.98 119.993 171.476 117.749 177.867 113.497C184.257 109.244 189.254 103.175 192.226 96.0575C195.199 88.9396 196.012 81.0923 194.564 73.5078C193.603 68.472 191.668 63.6765 188.87 59.3952C186.071 55.1139 182.465 51.4306 178.256 48.5556C174.047 45.6807 169.318 43.6704 164.339 42.6394C159.36 41.6085 154.229 41.5772 149.238 42.5473ZM145.613 104.472C144.699 104.649 143.753 104.549 142.895 104.185C142.037 103.82 141.306 103.207 140.793 102.422C140.281 101.638 140.01 100.718 140.016 99.7789C140.021 98.8395 140.303 97.9229 140.825 97.145C141.347 96.3671 142.086 95.7628 142.948 95.4086C143.81 95.0544 144.757 94.9661 145.669 95.1549C146.581 95.3438 147.417 95.8012 148.071 96.4695C148.726 97.1377 149.169 97.9868 149.345 98.9092C149.58 100.146 149.319 101.426 148.619 102.469C147.919 103.512 146.838 104.232 145.613 104.472ZM171.695 69.8164L164.091 71.2944L162.626 63.6219L170.23 62.1439L171.695 69.8164Z" fill="#FF4581"/>
</svg>
