<svg width="254" height="200" viewBox="0 0 254 200" fill="none" xmlns="http://www.w3.org/2000/svg">
<path d="M188.657 157.278L200.606 177.974L212.555 198.669H164.76L176.708 177.974L188.657 157.278Z" fill="#3EAF7C"/>
<path d="M120.759 116.629H70.6477V166.74H120.759V116.629Z" fill="#4388DD"/>
<path d="M156.679 84.7007C174.435 84.7007 188.829 70.3063 188.829 52.5499C188.829 34.7936 174.435 20.3992 156.679 20.3992C138.922 20.3992 124.528 34.7936 124.528 52.5499C124.528 70.3063 138.922 84.7007 156.679 84.7007Z" fill="#FF4581"/>
<path d="M185.614 106.233C185.614 105.181 185.926 104.152 186.511 103.277C187.096 102.402 187.927 101.719 188.899 101.317C189.872 100.914 190.942 100.809 191.974 101.014C193.006 101.219 193.955 101.726 194.699 102.47C195.443 103.214 195.95 104.163 196.155 105.195C196.36 106.227 196.255 107.297 195.852 108.27C195.45 109.242 194.767 110.073 193.892 110.658C193.017 111.243 191.988 111.555 190.936 111.555C189.525 111.555 188.171 110.994 187.173 109.996C186.175 108.998 185.614 107.644 185.614 106.233ZM186.501 106.233C186.501 107.11 186.761 107.968 187.249 108.697C187.736 109.426 188.429 109.995 189.239 110.33C190.049 110.666 190.941 110.754 191.801 110.583C192.661 110.411 193.451 109.989 194.072 109.369C194.692 108.749 195.114 107.959 195.285 107.098C195.456 106.238 195.369 105.346 195.033 104.536C194.697 103.726 194.129 103.033 193.4 102.546C192.67 102.059 191.813 101.799 190.936 101.799C189.76 101.799 188.632 102.266 187.8 103.097C186.969 103.929 186.501 105.057 186.501 106.233Z" fill="#CCCCCC"/>
<path d="M75.1044 79.3292L68.7292 72.4941L75.5661 66.1199L81.9412 72.9549L75.1044 79.3292ZM69.7452 72.5296L75.1417 78.315L80.9253 72.9203L75.5306 67.1367L69.7452 72.5296Z" fill="#CCCCCC"/>
<path d="M164.661 88.6917C155.89 88.6917 147.316 86.0909 140.024 81.2181C132.731 76.3453 127.047 69.4195 123.691 61.3163C120.334 53.2132 119.456 44.2967 121.167 35.6944C122.878 27.0922 127.102 19.1905 133.304 12.9886C139.506 6.78674 147.407 2.56321 156.01 0.852113C164.612 -0.858982 173.528 0.0192143 181.632 3.37565C189.735 6.73208 196.661 12.416 201.533 19.7086C206.406 27.0013 209.007 35.5751 209.007 44.3459C209.007 56.1071 204.335 67.3867 196.018 75.7031C187.702 84.0196 176.422 88.6917 164.661 88.6917ZM164.661 0.886938C156.066 0.886938 147.663 3.43576 140.517 8.21109C133.37 12.9864 127.8 19.7738 124.51 27.7149C121.221 35.6559 120.36 44.3941 122.037 52.8243C123.714 61.2545 127.853 68.9982 133.931 75.076C140.009 81.1538 147.752 85.2929 156.183 86.9698C164.613 88.6467 173.351 87.786 181.292 84.4967C189.233 81.2074 196.021 75.6372 200.796 68.4904C205.571 61.3436 208.12 52.9413 208.12 44.3459C208.12 32.8199 203.541 21.7659 195.391 13.6158C187.241 5.46564 176.187 0.886938 164.661 0.886938Z" fill="#3F3D56"/>
<path d="M137.362 78.8489L125.906 102.69L126.706 103.075L138.161 79.233L137.362 78.8489Z" fill="#3F3D56"/>
<path d="M134.717 134.42L134.295 135.2L184.755 162.509L185.178 161.729L134.717 134.42Z" fill="#3F3D56"/>
<path d="M134.949 167.184H70.2042V102.439H134.949V167.184ZM71.0911 166.297H134.062V103.326H71.0911V166.297Z" fill="#3F3D56"/>
<path d="M230.962 199.113H163.992L197.477 141.115L230.962 199.113ZM165.528 198.226H229.426L197.477 142.889L165.528 198.226Z" fill="#3F3D56"/>
<path d="M253.215 199.113H0V200H253.215V199.113Z" fill="#E6E6E6"/>
<path d="M34.129 199.756C34.0119 199.565 31.2531 194.959 30.297 185.393C29.4199 176.618 29.984 161.826 37.6549 141.193C52.1879 102.105 34.3059 70.566 34.1232 70.252L35.0052 69.7402C35.0496 69.8201 39.666 77.8609 42.3915 90.6653C45.9931 107.641 44.6816 125.292 38.6106 141.549C24.1024 180.57 34.8886 199.043 34.999 199.225L34.129 199.756Z" fill="#3F3D56"/>
<path d="M49.3488 92.4281C53.0091 92.4281 55.9763 89.4608 55.9763 85.8006C55.9763 82.1403 53.0091 79.1731 49.3488 79.1731C45.6885 79.1731 42.7213 82.1403 42.7213 85.8006C42.7213 89.4608 45.6885 92.4281 49.3488 92.4281Z" fill="#FF4581"/>
<path d="M29.9755 143.92C33.6358 143.92 36.603 140.953 36.603 137.292C36.603 133.632 33.6358 130.665 29.9755 130.665C26.3153 130.665 23.348 133.632 23.348 137.292C23.348 140.953 26.3153 143.92 29.9755 143.92Z" fill="#FF4581"/>
<path d="M37.5156 199.557C37.5156 199.557 31.8602 185.637 48.826 175.196L37.5156 199.557Z" fill="#3EAF7C"/>
<path d="M30.5603 199.304C30.5603 199.304 28.8352 189.382 15.4827 189.467L30.5603 199.304Z" fill="#3EAF7C"/>
<path d="M46.002 118.565C46.002 117.513 46.3141 116.484 46.8988 115.609C47.4835 114.734 48.3146 114.051 49.287 113.649C50.2594 113.246 51.3294 113.141 52.3616 113.346C53.3939 113.551 54.3421 114.058 55.0863 114.802C55.8306 115.547 56.3374 116.495 56.5427 117.527C56.748 118.559 56.6427 119.629 56.2399 120.602C55.8371 121.574 55.155 122.405 54.2799 122.99C53.4048 123.575 52.376 123.887 51.3235 123.887C49.9121 123.887 48.5586 123.326 47.5606 122.328C46.5626 121.33 46.002 119.977 46.002 118.565ZM46.8889 118.565C46.8889 119.442 47.149 120.3 47.6362 121.029C48.1235 121.758 48.8161 122.327 49.6264 122.662C50.4367 122.998 51.3284 123.086 52.1886 122.915C53.0488 122.743 53.839 122.321 54.4592 121.701C55.0794 121.081 55.5017 120.291 55.6728 119.43C55.8439 118.57 55.7561 117.678 55.4205 116.868C55.0848 116.058 54.5164 115.365 53.7872 114.878C53.0579 114.391 52.2005 114.131 51.3235 114.131C50.1473 114.131 49.0194 114.598 48.1877 115.429C47.3561 116.261 46.8889 117.389 46.8889 118.565Z" fill="#CCCCCC"/>
<path d="M29.9753 102.139C29.9753 101.087 30.2874 100.058 30.8722 99.1827C31.4569 98.3076 32.288 97.6255 33.2604 97.2227C34.2328 96.8199 35.3028 96.7146 36.335 96.9199C37.3673 97.1252 38.3155 97.632 39.0597 98.3763C39.8039 99.1205 40.3108 100.069 40.5161 101.101C40.7214 102.133 40.616 103.203 40.2133 104.176C39.8105 105.148 39.1284 105.979 38.2533 106.564C37.3782 107.149 36.3493 107.461 35.2968 107.461C33.8855 107.461 32.5319 106.9 31.534 105.902C30.536 104.904 29.9753 103.55 29.9753 102.139ZM30.8623 102.139C30.8623 103.016 31.1223 103.874 31.6096 104.603C32.0969 105.332 32.7895 105.901 33.5998 106.236C34.4101 106.572 35.3018 106.66 36.162 106.489C37.0222 106.317 37.8124 105.895 38.4326 105.275C39.0528 104.655 39.4751 103.865 39.6462 103.004C39.8173 102.144 39.7295 101.252 39.3939 100.442C39.0582 99.6318 38.4898 98.9392 37.7606 98.4519C37.0313 97.9646 36.1739 97.7045 35.2968 97.7045C34.1207 97.7045 32.9928 98.1718 32.1611 99.0034C31.3295 99.8351 30.8623 100.963 30.8623 102.139Z" fill="#CCCCCC"/>
</svg>
