<svg width="66" height="65" viewBox="0 0 66 65" fill="none" xmlns="http://www.w3.org/2000/svg">
<path d="M63.4293 45.3642C63.4487 45.3239 63.4658 45.2826 63.4795 45.2403C67.389 35.9817 66.6904 24.631 61.6127 15.9555C64.3235 12.6304 60.8024 7.86858 56.9518 9.711C56.2752 9.00147 55.5647 8.32144 54.8285 7.67846C56.2736 3.6475 51.4506 0.340766 48.4469 3.35247C39.7165 -1.17104 28.8579 -1.11375 20.1757 3.50554C17.0872 0.147077 11.9002 3.74805 13.7702 7.96185C12.6992 8.92275 11.6855 9.96079 10.7508 11.0585C9.94384 12.0063 11.4058 13.3054 12.2073 12.3642C13.0769 11.3431 14.019 10.3771 15.0141 9.48199C16.9385 10.9062 19.7288 10.1807 20.7845 8.0067C24.2685 9.03574 27.5956 10.5126 30.6959 12.4081C30.4363 13.3685 30.5423 14.441 30.9877 15.3276C28.436 17.5893 26.1381 20.1477 24.1427 22.9516C22.3006 22.3804 20.2701 23.3365 19.469 25.1265C15.4066 25.1488 11.3316 25.5972 7.33068 26.465C6.9774 25.7895 6.4418 25.2297 5.79247 24.8547C6.54417 21.8469 7.73477 18.9856 9.33848 16.34C9.97749 15.2855 8.3645 14.1894 7.69622 15.2917C5.99116 18.1045 4.72475 21.1462 3.9238 24.3437C-0.708883 24.4244 -1.48663 31.0005 2.92364 32.2656C2.85866 41.6249 6.8023 50.7243 13.6408 56.9229C12.2143 60.8769 16.8455 64.1384 19.9018 61.3495C28.8214 66.2162 40.0942 66.2169 49.0142 61.3511C52.1228 64.5057 57.1015 60.9815 55.3506 56.8575C58.875 53.6435 61.613 49.7124 63.4293 45.3642ZM62.2109 43.145C59.534 40.4161 56.6046 37.9407 53.477 35.7676C53.9212 34.3399 53.5351 32.7337 52.4978 31.6798C55.1279 27.1928 57.1926 22.3815 58.6459 17.3555C59.1302 17.3572 59.5958 17.2655 60.0248 17.0996C64.4781 24.8172 65.2926 34.7675 62.2109 43.145ZM17.7116 54.362C16.8978 46.1825 18.3259 38.0223 21.8604 30.6479C24.0562 31.351 26.4295 29.8694 26.8559 27.5566C33.5238 28.4 39.9458 30.4087 45.9725 33.537C45.6827 34.6931 45.9226 35.9678 46.6131 36.9295C39.8198 45.7605 30.8527 52.4056 20.5898 56.2141C19.968 55.2037 18.9222 54.4968 17.7116 54.362ZM47.783 34.5425C47.783 33.4181 48.668 32.5033 49.7559 32.5033C52.373 32.6151 52.3723 36.4703 49.7559 36.5817C48.668 36.5817 47.783 35.6669 47.783 34.5425ZM60.6273 13.332C60.6273 14.4564 59.7423 15.3711 58.6544 15.3711C56.0371 15.2593 56.0378 11.4042 58.6544 11.2928C59.7423 11.2928 60.6273 12.2075 60.6273 13.332ZM55.4741 10.9992C54.1375 12.9262 54.7578 15.7118 56.7729 16.8571C55.365 21.7052 53.3691 26.346 50.8299 30.6748C50.2991 30.5182 49.7099 30.4793 49.1641 30.565C46.51 24.7497 42.6483 19.5118 37.9308 15.3279C38.3765 14.4408 38.4827 13.3701 38.2228 12.4084C41.2088 10.5829 44.4074 9.14423 47.7521 8.12154C48.8638 10.3238 51.8459 10.9456 53.6973 9.29703C54.3109 9.83868 54.905 10.4077 55.4741 10.9992ZM32.4864 13.4856C32.4864 12.3611 33.3714 11.4464 34.4593 11.4464C37.0765 11.5582 37.0758 15.4132 34.4593 15.5246C33.3714 15.5246 32.4864 14.6099 32.4864 13.4856ZM51.1909 4.17433C52.2789 4.17433 53.1639 5.08906 53.1639 6.21349C53.0554 8.91865 49.3263 8.91799 49.2181 6.21349C49.2181 5.08906 50.1031 4.17433 51.1909 4.17433ZM17.2884 8.25252C16.2006 8.25252 15.3156 7.33778 15.3156 6.21336C15.4241 3.50806 19.1532 3.50899 19.2614 6.21336C19.2614 7.33778 18.3763 8.25252 17.2884 8.25252ZM21.1917 6.06121C21.1817 5.78576 21.1448 5.51758 21.0834 5.2588C29.1784 0.963376 39.2913 0.888493 47.4487 5.05903C47.3439 5.41875 47.2865 5.79912 47.2846 6.19298C43.7664 7.26092 40.4023 8.76942 37.2617 10.6861C35.7521 9.08377 33.1671 9.08324 31.657 10.6859C28.3842 8.68845 24.871 7.13576 21.1917 6.06121ZM32.268 16.8149C33.5757 17.7307 35.3425 17.7308 36.6503 16.8151C41.1543 20.8054 44.8439 25.8004 47.3854 31.3472C47.2131 31.483 47.0522 31.6335 46.9042 31.7963C40.5504 28.4895 33.7698 26.3869 26.7268 25.541C26.5366 24.9504 26.2174 24.4201 25.803 23.9861C27.6932 21.3513 29.8624 18.9448 32.268 16.8149ZM23.0184 24.7656C24.1062 24.7656 24.9912 25.6803 24.9912 26.8047C24.8827 29.51 21.1536 29.5092 21.0454 26.8047C21.0455 25.6803 21.9305 24.7656 23.0184 24.7656ZM1.91562 28.3665C1.91562 27.2421 2.80063 26.3274 3.88847 26.3274C6.50562 26.4392 6.50485 30.2942 3.88847 30.4056C2.80076 30.4057 1.91562 29.491 1.91562 28.3665ZM4.85756 32.2648C4.85756 32.2648 7.79485 31.6075 7.79485 28.3927C7.79485 28.3927 15.332 27.1565 19.1241 27.1131C19.1953 28.0744 19.5954 28.9419 20.209 29.5966C16.4404 37.376 14.9204 46.001 15.7954 54.644C15.4186 54.8051 15.0718 55.0254 14.7652 55.2932C8.45617 49.4939 4.85756 39.7771 4.85756 32.2648ZM17.2884 60.4007C16.2006 60.4007 15.3156 59.4859 15.3156 58.3615C15.3156 57.2371 16.2006 56.3223 17.2884 56.3223C18.3617 56.3223 19.2614 57.2762 19.2614 58.3615C19.2614 59.4859 18.3763 60.4007 17.2884 60.4007ZM34.4593 63.0304C29.7659 63.0304 25.1247 61.877 20.9765 59.6873C21.1449 59.1921 21.2192 58.628 21.1864 58.1025C31.8028 54.1759 41.0799 47.3138 48.1077 38.1894C48.6851 38.4672 49.3258 38.5948 49.9623 38.5605C50.3919 40.1967 50.7314 41.8659 50.972 43.535C51.1563 44.8128 53.0701 44.5273 52.8853 43.2448C52.6299 41.4724 52.2682 39.6999 51.8091 37.9638C52.0403 37.8162 52.2551 37.644 52.4508 37.4515C55.6778 39.6995 58.6864 42.28 61.412 45.136C59.7216 48.9702 57.2614 52.4419 54.1356 55.3106C53.8265 55.0725 53.4819 54.8809 53.112 54.7446C53.302 52.9 53.3848 51.0374 53.3569 49.1953C53.3373 47.899 51.4034 47.9294 51.4232 49.226C51.45 50.9967 51.37 52.7871 51.1864 54.5604C48.9057 54.9325 47.414 57.3592 48.0425 59.6334C43.8683 61.858 39.1911 63.0304 34.4593 63.0304ZM51.7999 60.5732C50.7121 60.5732 49.8271 59.6584 49.8271 58.534C49.9356 55.8287 53.6647 55.8296 53.7729 58.534C53.7729 59.6584 52.8879 60.5732 51.7999 60.5732Z" fill="url(#paint0_linear)"/>
<defs>
<linearGradient id="paint0_linear" x1="4.02337" y1="1.62899e-06" x2="76.6332" y2="49.3217" gradientUnits="userSpaceOnUse">
<stop stop-color="#4388DD"/>
<stop offset="1" stop-color="#FF4581"/>
</linearGradient>
</defs>
</svg>
