<svg width="480" height="509" viewBox="0 0 480 509" fill="none" xmlns="http://www.w3.org/2000/svg">
<path d="M161.212 496.288L172.476 496.288L177.834 452.842L161.21 452.843L161.212 496.288Z" fill="#A0616A"/>
<path d="M158.339 507.207L194.659 507.205V506.746C194.658 502.997 193.169 499.401 190.518 496.75C187.867 494.099 184.271 492.61 180.522 492.61H180.521L158.339 492.611L158.339 507.207Z" fill="#4388DD"/>
<path d="M76.0173 486.557L86.7384 490.012L105.164 450.303L89.3404 445.205L76.0173 486.557Z" fill="#A0616A"/>
<path d="M69.9342 496.069L104.503 507.207L104.644 506.77C105.794 503.201 105.479 499.322 103.769 495.986C102.059 492.65 99.0932 490.129 95.5248 488.979L95.524 488.979L74.4103 482.176L69.9342 496.069Z" fill="#4388DD"/>
<path d="M70.3822 347.952C62.6145 347.952 56.3174 341.655 56.3174 333.887C56.3174 326.119 62.6145 319.822 70.3822 319.822C78.15 319.822 84.447 326.119 84.447 333.887C84.447 341.655 78.15 347.952 70.3822 347.952Z" fill="#FF4581"/>
<path d="M51.9651 359.549C52.2183 359.685 52.4689 359.813 52.7197 359.941L82.4159 304.802C82.1713 304.663 81.9266 304.524 81.6733 304.388C74.3587 300.45 65.7797 299.579 57.823 301.967C49.8663 304.354 43.1836 309.803 39.2446 317.117C35.3056 324.431 34.4328 333.01 36.8183 340.967C39.2038 348.924 44.6521 355.608 51.965 359.549H51.9651Z" fill="#4388DD"/>
<path d="M79.3854 331.536L83.536 273.95L82.7466 254.73L98.9243 258.329L92.9653 333.786C93.6403 335.177 93.9198 336.727 93.7732 338.266C93.6266 339.805 93.0597 341.275 92.1343 342.513C91.2089 343.752 89.9608 344.713 88.5264 345.29C87.092 345.867 85.5265 346.038 84.0011 345.786C82.4757 345.533 81.0492 344.866 79.8775 343.857C78.7058 342.848 77.8341 341.536 77.3576 340.065C76.8811 338.595 76.8183 337.021 77.176 335.517C77.5336 334.012 78.2979 332.635 79.3854 331.536Z" fill="#A0616A"/>
<path d="M152.594 280.776L153.622 261.482L164.005 253.046L165.439 271.591L203.661 315.781C205.251 316.036 206.736 316.741 207.938 317.813C209.14 318.885 210.01 320.278 210.445 321.829C210.88 323.38 210.862 325.023 210.392 326.564C209.923 328.105 209.022 329.479 207.796 330.524C206.57 331.569 205.07 332.24 203.474 332.459C201.878 332.678 200.253 332.436 198.791 331.76C197.329 331.085 196.09 330.004 195.223 328.647C194.355 327.29 193.895 325.713 193.896 324.102C193.896 323.988 193.908 323.878 193.913 323.766L152.594 280.776Z" fill="#A0616A"/>
<path d="M150.732 274.6L183.353 315.978L194.403 304.191L171.566 271.04L157.257 208.183C156.876 207.377 156.337 206.655 155.671 206.061C155.006 205.468 154.227 205.015 153.382 204.729C152.551 204.444 151.672 204.33 150.796 204.393C149.92 204.456 149.065 204.695 148.284 205.095L148.099 205.189L150.732 274.6Z" fill="#FF4581"/>
<path d="M94.664 313.768L105.026 241.738L105.009 241.671L94.3672 199.836L93.3701 199.72C90.4948 199.403 87.6045 200.17 85.2648 201.871C82.925 203.572 81.304 206.085 80.7188 208.918L79.9301 315.978L94.664 313.768Z" fill="#FF4581"/>
<path d="M91.3944 194.541H145.254V170.207C145.256 166.669 144.561 163.166 143.208 159.897C141.856 156.628 139.872 153.657 137.371 151.155C134.871 148.653 131.901 146.668 128.633 145.314C125.365 143.96 121.862 143.263 118.324 143.263C114.786 143.263 111.283 143.96 108.015 145.314C104.747 146.668 101.778 148.653 99.2769 151.155C96.7761 153.657 94.7927 156.628 93.4402 159.897C92.0877 163.166 91.3925 166.669 91.3944 170.207V194.541Z" fill="#2F2E41"/>
<path d="M99.6306 183.818C93.7995 173.151 97.7197 159.777 108.387 153.946C119.054 148.115 132.428 152.035 138.259 162.702C144.09 173.369 140.17 186.743 129.503 192.574C118.836 198.405 105.462 194.485 99.6306 183.818Z" fill="#A0616A"/>
<path d="M108.318 154.585C100.226 154.585 93.6656 148.025 93.6656 139.933C93.6656 131.841 100.226 125.28 108.318 125.28C116.41 125.28 122.971 131.841 122.971 139.933C122.971 148.025 116.41 154.585 108.318 154.585Z" fill="#2F2E41"/>
<path d="M85.3724 174.425H142.658V174.1C142.658 159.251 129.809 147.17 114.015 147.17C98.2215 147.17 85.3724 159.251 85.3724 174.1V174.425Z" fill="#2F2E41"/>
<path d="M158.491 474.574L179.774 473.053L179.803 472.742C189.13 370.921 183.837 303.671 164.904 283.364L159.561 273.37L162.487 256.551C170.298 235.975 157.178 220.925 156.186 219.831L151.957 207.144C151.665 206.27 151.127 205.498 150.408 204.922C149.688 204.346 148.818 203.989 147.902 203.894L90.4283 198.016L90.3909 198.383L90.4283 198.016C89.7921 197.951 89.1493 198.014 88.5379 198.202C87.9265 198.389 87.3587 198.697 86.8682 199.107C86.3778 199.518 85.9744 200.022 85.6821 200.591C85.3897 201.16 85.2142 201.781 85.166 202.419L85.161 202.486L85.1801 202.552L106.131 273.103L104.294 296.978L79.5682 467.839L100.863 472.402L100.962 472.079L140.256 343.282L158.491 474.574Z" fill="#2C3E50"/>
<path d="M430.441 23.9305L384.377 116.69L384.566 116.784C396.866 122.893 411.09 123.865 424.107 119.486C437.125 115.108 447.869 105.737 453.978 93.4366C460.086 81.1358 461.058 66.9123 456.68 53.895C452.301 40.8777 442.931 30.1329 430.63 24.0244L430.441 23.9305Z" fill="#FF4581"/>
<path d="M430.555 50.0487L405.254 100.996L405.358 101.048C412.114 104.403 419.926 104.937 427.076 102.532C434.226 100.127 440.127 94.9805 443.482 88.2244C446.837 81.4683 447.371 73.6561 444.966 66.5065C442.561 59.3568 437.415 53.4553 430.659 50.1003L430.555 50.0487Z" fill="white"/>
<path d="M277.851 159.191L417.993 228.785L479.357 105.217L454.305 92.7764L453.65 94.096L477.382 105.881L417.329 226.81L278.506 157.871L277.851 159.191Z" fill="#3F3D56"/>
<path d="M243.502 180.926C236.544 177.471 233.705 169.031 237.16 162.074C240.615 155.117 249.056 152.277 256.013 155.732C262.97 159.187 265.809 167.628 262.354 174.585C258.899 181.542 250.459 184.381 243.502 180.926Z" fill="#FF4581"/>
<path d="M412.062 239.65C405.105 236.195 402.266 227.755 405.72 220.797C409.175 213.84 417.616 211.001 424.573 214.456C431.53 217.911 434.369 226.352 430.914 233.309C427.46 240.266 419.019 243.105 412.062 239.65Z" fill="#FF4581"/>
<path d="M278.036 158.817L246.544 143.178L262.183 111.686L325.168 142.964L293.89 205.949L262.397 190.309L278.036 158.817Z" fill="#4388DD"/>
<path d="M242.384 295.293C236.744 306.65 235.833 319.778 239.849 331.805C243.865 343.833 252.481 353.779 263.813 359.47L306.465 273.581C295.084 267.991 281.951 267.138 269.942 271.207C257.932 275.276 248.024 283.936 242.384 295.293Z" fill="#FF4581"/>
<path d="M384.708 117.681L431.43 23.5956L430.766 23.2692C418.298 17.1397 403.91 16.1999 390.751 20.6555C377.591 25.1111 366.733 34.5992 360.554 47.0424C354.375 59.4857 353.377 73.8704 357.78 87.0473C362.183 100.224 371.628 111.12 384.046 117.349L384.708 117.681ZM429.45 24.2699L384.048 115.696C372.182 109.525 363.211 98.9447 359.065 86.2291C354.919 73.5134 355.929 59.6785 361.878 47.6997C367.826 35.721 378.239 26.5552 390.875 22.1737C403.512 17.7922 417.363 18.5449 429.45 24.2699Z" fill="#3F3D56"/>
<path d="M262.825 359.802L263.674 360.223C275.239 365.966 288.611 366.88 300.849 362.763C313.088 358.647 323.189 349.837 328.932 338.273C334.675 326.708 335.589 313.336 331.472 301.098C327.356 288.859 318.546 278.758 306.982 273.015L306.133 272.593L262.825 359.802ZM306.796 274.571C317.867 280.223 326.262 290.013 330.159 301.817C334.056 313.62 333.141 326.484 327.613 337.618C322.084 348.751 312.388 357.254 300.629 361.282C288.869 365.311 275.996 364.539 264.802 359.135L306.796 274.571Z" fill="#3F3D56"/>
<path d="M437.459 8.14283L438.778 8.79816L255.942 376.975L254.623 376.32L437.459 8.14283Z" fill="#3F3D56"/>
<path d="M320.868 348.544C313.911 345.089 311.071 336.648 314.526 329.691C317.981 322.734 326.422 319.895 333.379 323.35C340.336 326.805 343.175 335.245 339.72 342.203C336.265 349.16 327.825 351.999 320.868 348.544Z" fill="#FF4581"/>
<path d="M0.736725 508.992H281.417C281.613 508.992 281.8 508.914 281.938 508.776C282.076 508.638 282.154 508.451 282.154 508.255C282.154 508.06 282.076 507.872 281.938 507.734C281.8 507.596 281.613 507.519 281.417 507.519H0.736725C0.541351 507.519 0.353912 507.596 0.215759 507.734C0.0776062 507.872 3.05176e-05 508.06 3.05176e-05 508.255C3.05176e-05 508.451 0.0776062 508.638 0.215759 508.776C0.353912 508.914 0.541351 508.992 0.736725 508.992Z" fill="#2C3E50"/>
<path d="M243.452 507.507C239.306 494.145 243.334 478.949 252.791 468.795C255.459 465.926 258.566 463.5 261.997 461.609C262.229 461.483 262.498 461.443 262.757 461.498C263.015 461.552 263.245 461.697 263.407 461.906C263.568 462.115 263.65 462.374 263.637 462.638C263.624 462.902 263.517 463.152 263.336 463.345L261.442 465.394V463.831C265.108 467.251 271.79 464.642 272.456 459.78C272.591 458.514 272.433 457.234 271.996 456.038C271.559 454.842 270.854 453.762 269.935 452.881C268.947 451.953 267.737 451.294 266.421 450.967C265.105 450.64 263.727 450.658 262.42 451.016C261.041 451.352 259.751 451.981 258.638 452.862C257.525 453.743 256.617 454.855 255.974 456.12C254.793 458.722 254.683 461.684 255.667 464.366C257.689 470.274 264.138 473.051 270.023 471.659C276.029 470.239 280.332 464.577 280.528 458.462C280.559 455.5 279.686 452.6 278.024 450.148C276.363 447.697 273.994 445.81 271.232 444.741C264.927 442.411 258.082 444.74 252.757 448.341C247.326 452.152 242.886 457.208 239.807 463.086C236.676 468.788 234.894 475.133 234.598 481.631C234.426 486.976 235.561 493.048 239.503 496.953C240.448 497.879 241.538 498.645 242.73 499.219L241.615 501.127C234.638 497.09 228.979 491.119 225.321 483.935C221.663 476.752 220.163 468.663 221.001 460.645C221.537 455.819 222.9 451.12 225.031 446.756C225.656 445.478 227.562 446.597 226.94 447.871C223.342 455.273 222.135 463.61 223.484 471.728C224.477 477.443 226.716 482.868 230.042 487.62C233.368 492.371 237.701 496.331 242.73 499.219C243.976 499.934 242.881 501.748 241.615 501.127C235.664 498.208 233.068 491.602 232.496 485.344C231.843 478.2 233.701 470.78 236.71 464.337C239.847 457.524 244.642 451.606 250.657 447.124C256.582 442.802 264.609 439.945 271.819 442.609C278.268 444.992 282.956 451.523 282.739 458.462C282.52 465.426 277.712 471.977 270.877 473.725C264.06 475.468 256.605 472.463 253.857 465.798C252.544 462.711 252.45 459.242 253.594 456.089C254.201 454.56 255.116 453.173 256.283 452.015C257.451 450.857 258.845 449.952 260.378 449.358C261.887 448.725 263.521 448.451 265.153 448.557C266.785 448.664 268.37 449.147 269.784 449.97C271.078 450.797 272.178 451.892 273.012 453.182C273.845 454.472 274.39 455.925 274.611 457.445C274.854 458.915 274.708 460.422 274.189 461.819C273.67 463.215 272.796 464.452 271.652 465.407C270.532 466.307 269.226 466.948 267.829 467.285C266.431 467.621 264.977 467.645 263.57 467.354C262.185 467.046 260.91 466.368 259.88 465.394C259.677 465.184 259.564 464.904 259.564 464.612C259.564 464.321 259.677 464.041 259.88 463.831L261.773 461.782L263.113 463.517C251.527 469.877 244.276 482.813 244.032 495.929C243.958 499.652 244.482 503.363 245.583 506.919C246.006 508.281 243.873 508.863 243.452 507.507Z" fill="#3EAF7C"/>
</svg>
