<svg width="82" height="65" viewBox="0 0 82 65" fill="none" xmlns="http://www.w3.org/2000/svg">
<g clip-path="url(#clip0)">
<path fill-rule="evenodd" clip-rule="evenodd" d="M4.38029 1.1147C5.45126 0.387917 6.71038 0 7.99842 0C9.72563 0 11.3821 0.696852 12.6034 1.93726C13.3993 2.74556 13.9679 3.74153 14.2675 4.82275H67.7766C67.845 4.57893 67.9273 4.33847 68.0235 4.10263C68.5164 2.89404 69.3511 1.86104 70.4221 1.13426C71.493 0.40748 72.7522 0.0195632 74.0402 0.0195632C74.8954 0.0195632 75.7423 0.190645 76.5324 0.52304C77.3225 0.855435 78.0405 1.34263 78.6452 1.95682C79.2499 2.57101 79.7296 3.30015 80.0569 4.10263C80.3842 4.9051 80.5527 5.76518 80.5527 6.63377C80.5527 7.94194 80.1707 9.22073 79.4551 10.3084C78.7395 11.3961 77.7224 12.2439 76.5324 12.7445C76.0099 12.9643 75.4643 13.1129 74.9098 13.1888V56.4294H82.0019V64.9999H0V56.4294H7.13989V13.1707C7.00216 13.1521 6.86476 13.129 6.7279 13.1013C5.46461 12.8461 4.3042 12.2162 3.39342 11.2912C2.48264 10.3662 1.86238 9.18761 1.6111 7.90458C1.35982 6.62155 1.48878 5.29165 1.9817 4.08306C2.47461 2.87447 3.30933 1.84147 4.38029 1.1147ZM72.3415 13.019V56.4294H9.70818V12.9964C9.97342 12.9231 10.2348 12.8326 10.4906 12.7249C11.6806 12.2243 12.6977 11.3766 13.4133 10.2889C13.979 9.42908 14.3362 8.44989 14.461 7.43118H67.5752C67.595 7.59603 67.6208 7.76047 67.6529 7.92414C67.9042 9.20718 68.5244 10.3857 69.4352 11.3107C70.2421 12.1302 71.2448 12.7181 72.3415 13.019ZM5.70524 10.0998C6.38402 10.5605 7.18205 10.8063 7.99842 10.8063C9.09313 10.8063 10.143 10.3647 10.9171 9.57848C11.6912 8.79231 12.126 7.72603 12.126 6.61421C12.126 5.78509 11.884 4.97459 11.4304 4.2852C10.9769 3.59581 10.3322 3.0585 9.57799 2.74121C8.82376 2.42392 7.99384 2.3409 7.19316 2.50266C6.39248 2.66441 5.65701 3.06367 5.07976 3.64995C4.5025 4.23622 4.10938 4.98318 3.95012 5.79637C3.79085 6.60956 3.87259 7.45245 4.185 8.21846C4.49741 8.98447 5.02646 9.63918 5.70524 10.0998ZM71.747 10.1194C72.4258 10.58 73.2238 10.8259 74.0402 10.8259C75.1349 10.8259 76.1848 10.3842 76.9589 9.59804C77.7329 8.81187 78.1678 7.74559 78.1678 6.63377C78.1678 5.80465 77.9257 4.99415 77.4722 4.30477C77.0186 3.61538 76.374 3.07806 75.6198 2.76077C74.8655 2.44348 74.0356 2.36047 73.2349 2.52222C72.4343 2.68397 71.6988 3.08323 71.1215 3.66951C70.5443 4.25578 70.1512 5.00275 69.9919 5.81594C69.8326 6.62912 69.9144 7.47202 70.2268 8.23802C70.5392 9.00403 71.0682 9.65875 71.747 10.1194ZM79.6171 62.5778H2.38484V58.8515H79.6171V62.5778ZM20.5564 35.3608C19.5405 35.3608 18.5474 35.6668 17.7027 36.24C16.858 36.8133 16.1996 37.628 15.8108 38.5813C15.4221 39.5345 15.3203 40.5835 15.5185 41.5954C15.7167 42.6074 16.2059 43.5369 16.9243 44.2665C17.6427 44.9961 18.5579 45.493 19.5543 45.6943C20.5507 45.8956 21.5835 45.7923 22.5221 45.3974C23.4607 45.0026 24.2629 44.3339 24.8273 43.476C25.3918 42.6181 25.693 41.6095 25.693 40.5777C25.693 39.8926 25.5602 39.2142 25.302 38.5813C25.2312 38.4076 25.1513 38.2383 25.0628 38.074L31.1553 31.8863C31.6225 32.1517 32.1302 32.3428 32.6609 32.45C33.4992 32.6194 34.3634 32.5731 35.1755 32.319L42.3711 39.627C42.316 39.7386 42.2647 39.8525 42.2175 39.9684C41.8287 40.9216 41.727 41.9706 41.9252 42.9825C42.1234 43.9945 42.6126 44.9241 43.3309 45.6537C44.0493 46.3832 44.9646 46.8801 45.961 47.0814C46.9574 47.2827 47.9902 47.1794 48.9287 46.7845C49.8673 46.3897 50.6696 45.721 51.234 44.8631C51.7984 44.0052 52.0996 42.9966 52.0996 41.9648C52.0996 41.2797 51.9668 40.6013 51.7086 39.9684C51.6999 39.9471 51.6911 39.9258 51.6821 39.9046L58.4248 33.0565C58.6888 33.158 58.9616 33.2376 59.2409 33.294C60.2373 33.4953 61.2701 33.392 62.2086 32.9972C63.1472 32.6023 63.9495 31.9337 64.5139 31.0757C65.0783 30.2178 65.3795 29.2092 65.3795 28.1774C65.3795 27.4923 65.2467 26.814 64.9885 26.181C64.7304 25.5481 64.3521 24.973 63.8751 24.4886C63.3981 24.0041 62.8318 23.6199 62.2086 23.3577C61.5854 23.0955 60.9175 22.9606 60.243 22.9606C59.227 22.9606 58.2339 23.2666 57.3892 23.8398C56.5445 24.413 55.8862 25.2278 55.4974 26.181C55.1086 27.1343 55.0069 28.1832 55.2051 29.1952C55.3854 30.1161 55.8068 30.9688 56.4226 31.6647L50.2381 37.9459C49.8441 37.6147 49.4029 37.3445 48.9287 37.1451C48.3055 36.8829 47.6376 36.748 46.9631 36.748C45.9471 36.748 44.954 37.0539 44.1093 37.6271C44.0426 37.6724 43.9771 37.7192 43.9127 37.7674L37.2832 31.0343C37.5247 30.7906 37.7429 30.522 37.9339 30.2317C38.4983 29.3738 38.7996 28.3652 38.7996 27.3334C38.7996 25.9498 38.2584 24.6229 37.2951 23.6446C36.3318 22.6662 35.0253 22.1166 33.663 22.1166C32.6471 22.1166 31.6539 22.4225 30.8092 22.9958C29.9645 23.569 29.3062 24.3838 28.9174 25.337C28.5286 26.2903 28.4269 27.3392 28.6251 28.3512C28.7583 29.0311 29.0228 29.6738 29.3999 30.2437L23.4613 36.2752C23.1675 36.0706 22.8528 35.8971 22.5221 35.7579C21.8989 35.4958 21.231 35.3608 20.5564 35.3608ZM20.4601 43.3724C19.9159 43.3724 19.3839 43.2085 18.9313 42.9014C18.4788 42.5943 18.1261 42.1578 17.9178 41.6472C17.7096 41.1365 17.6551 40.5746 17.7612 40.0324C17.8674 39.4903 18.1295 38.9923 18.5143 38.6015C18.8992 38.2106 19.3895 37.9445 19.9233 37.8366C20.4571 37.7288 21.0103 37.7841 21.5132 37.9957C22.016 38.2072 22.4457 38.5654 22.7481 39.025C23.0505 39.4846 23.2119 40.0249 23.2119 40.5777C23.2119 40.9447 23.1407 41.3081 23.0024 41.6472C22.8641 41.9862 22.6614 42.2943 22.4059 42.5538C22.1504 42.8134 21.847 43.0192 21.5132 43.1597C21.1793 43.3001 20.8215 43.3724 20.4601 43.3724ZM33.5648 30.1282C33.0209 30.128 32.4892 29.9641 32.037 29.6572C31.5844 29.3501 31.2317 28.9136 31.0235 28.4029C30.8152 27.8922 30.7607 27.3303 30.8669 26.7882C30.9731 26.2461 31.2351 25.7481 31.62 25.3572C32.0048 24.9664 32.4951 24.7002 33.0289 24.5924C33.5627 24.4845 34.116 24.5399 34.6188 24.7514C35.1216 24.9629 35.5514 25.3212 35.8537 25.7807C36.1561 26.2403 36.3175 26.7807 36.3175 27.3334C36.3175 27.7005 36.2463 28.064 36.1079 28.4031C35.9696 28.7423 35.7668 29.0504 35.5112 29.3099C35.2556 29.5695 34.9521 29.7753 34.6182 29.9157C34.2842 30.0561 33.9263 30.1283 33.5648 30.1282ZM46.864 44.7595C46.3207 44.759 45.7897 44.5951 45.338 44.2885C44.8854 43.9814 44.5327 43.545 44.3245 43.0343C44.1162 42.5236 44.0617 41.9617 44.1679 41.4196C44.2741 40.8774 44.5361 40.3795 44.921 39.9886C45.3058 39.5978 45.7961 39.3316 46.3299 39.2238C46.8637 39.1159 47.417 39.1713 47.9198 39.3828C48.4226 39.5943 48.8524 39.9525 49.1547 40.4121C49.4571 40.8717 49.6185 41.412 49.6185 41.9648C49.6185 42.332 49.5472 42.6957 49.4088 43.0349C49.2703 43.3742 49.0674 43.6824 48.8116 43.942C48.5557 44.2015 48.2521 44.4073 47.9179 44.5476C47.5837 44.6879 47.2256 44.7599 46.864 44.7595ZM60.1512 30.9722C59.607 30.9722 59.075 30.8083 58.6225 30.5012C58.1699 30.1941 57.8172 29.7576 57.609 29.2469C57.4007 28.7363 57.3462 28.1743 57.4524 27.6322C57.5585 27.0901 57.8206 26.5921 58.2055 26.2013C58.5903 25.8104 59.0806 25.5442 59.6144 25.4364C60.1482 25.3286 60.7015 25.3839 61.2043 25.5954C61.7071 25.807 62.1369 26.1652 62.4392 26.6248C62.7416 27.0843 62.903 27.6247 62.903 28.1774C62.903 28.5448 62.8316 28.9086 62.6931 29.248C62.5545 29.5874 62.3514 29.8957 62.0954 30.1553C61.8394 30.4148 61.5355 30.6206 61.2011 30.7608C60.8667 30.9009 60.5084 30.9728 60.1467 30.9722H60.1512Z" fill="url(#paint0_linear)"/>
</g>
<defs>
<linearGradient id="paint0_linear" x1="5" y1="1.62899e-06" x2="82" y2="65" gradientUnits="userSpaceOnUse">
<stop stop-color="#4388DD"/>
<stop offset="1" stop-color="#FF4581"/>
</linearGradient>
<clipPath id="clip0">
<rect width="82" height="65" fill="white"/>
</clipPath>
</defs>
</svg>
