<svg width="584" height="531" viewBox="0 0 584 531" fill="none" xmlns="http://www.w3.org/2000/svg">
<path d="M274.657 79.78C198.341 123.841 171.936 220.982 215.68 296.749C259.425 372.516 356.753 398.219 433.069 354.158C509.386 310.097 535.791 212.956 492.046 137.189C448.302 61.4216 350.974 35.7187 274.657 79.78Z" fill="url(#paint0_linear)" fill-opacity="0.25"/>
<path d="M302.605 489.49C458.015 489.49 584 482.842 584 474.642C584 466.442 458.015 459.795 302.605 459.795C147.195 459.795 21.2107 466.442 21.2107 474.642C21.2107 482.842 147.195 489.49 302.605 489.49Z" fill="#2C3E50"/>
<path opacity="0.1" d="M246.751 485.247C362.722 485.247 456.736 480.499 456.736 474.642C456.736 468.785 362.722 464.037 246.751 464.037C130.779 464.037 36.7651 468.785 36.7651 474.642C36.7651 480.499 130.779 485.247 246.751 485.247Z" fill="black"/>
<path d="M86.9637 514.942C134.992 514.942 173.927 513.043 173.927 510.7C173.927 508.357 134.992 506.458 86.9637 506.458C38.935 506.458 0 508.357 0 510.7C0 513.043 38.935 514.942 86.9637 514.942Z" fill="#2C3E50"/>
<path d="M214.969 530.936C247.289 530.936 273.489 529.6 273.489 527.951C273.489 526.302 247.289 524.965 214.969 524.965C182.65 524.965 156.45 526.302 156.45 527.951C156.45 529.6 182.65 530.936 214.969 530.936Z" fill="#2C3E50"/>
<path d="M463.099 80.831C480.671 80.831 494.915 65.9534 494.915 47.601C494.915 29.2486 480.671 14.371 463.099 14.371C445.528 14.371 431.283 29.2486 431.283 47.601C431.283 65.9534 445.528 80.831 463.099 80.831Z" fill="#2F2E41"/>
<path d="M485.867 400.405L467.304 449.657C467.304 449.657 451.834 461.719 461.116 465.739C470.398 469.76 488.961 461.719 488.961 461.719L503.4 425.533L501.337 400.405H485.867Z" fill="#2F2E41"/>
<path opacity="0.1" d="M485.867 400.405L467.304 449.657C467.304 449.657 451.834 461.719 461.116 465.739C470.398 469.76 488.961 461.719 488.961 461.719L503.4 425.533L501.337 400.405H485.867Z" fill="black"/>
<path d="M486.598 107.698L502.583 109.738C502.583 109.738 510.042 165.836 506.845 169.916C503.648 173.995 487.663 190.315 481.269 186.235C474.875 182.155 486.598 107.698 486.598 107.698Z" fill="#FF4581"/>
<path d="M341.7 209.509C341.7 209.509 320.161 218.308 316.058 219.286C311.955 220.264 305.801 230.041 312.981 231.996C320.161 233.952 347.855 214.398 347.855 214.398L341.7 209.509Z" fill="#A0616A"/>
<path d="M492.087 421.271L503.017 462.124C503.017 462.124 504.011 477.07 508.979 478.066C513.947 479.063 528.852 473.084 528.852 471.091C528.852 469.098 522.89 453.156 522.89 453.156C522.89 453.156 522.89 441.199 516.928 436.217C510.966 431.235 505.595 414.545 505.595 414.545L492.087 421.271Z" fill="#2F2E41"/>
<path d="M506.171 326.067C508.228 330.824 507.973 365.337 505.723 388.305C504.634 399.466 503.076 407.899 501.081 408.889L486.491 405.273L480.718 403.839L480.566 391.274L479.7 322.026L462.392 250.314V232.134L506.171 236.174L513.115 246.991L513.298 247.284C513.298 247.284 503.117 318.996 506.171 326.067Z" fill="#2C3E50"/>
<path opacity="0.1" d="M497.133 348.287C499.32 351.53 502.968 370.942 505.88 388.305C504.786 399.466 503.223 407.899 501.22 408.889L486.578 405.273C486.353 404.809 486.128 404.324 485.893 403.839C484.024 399.96 482.266 395.678 480.631 391.274L479.763 322.026L462.392 250.314V232.134L506.329 236.174L513.298 246.991L472.61 244.254L481.806 283.645L493.046 325.057C493.046 325.057 493.046 342.227 497.133 348.287Z" fill="black"/>
<path d="M426.157 191.53C426.157 191.53 412.134 222.841 432.166 266.273C444.562 293.3 455.594 320.943 465.22 349.095C465.22 349.095 472.231 382.426 482.248 403.637C492.264 424.848 490.261 425.858 490.261 425.858L506.286 416.767C506.286 416.767 497.272 354.145 493.265 348.085C489.259 342.025 489.259 324.855 489.259 324.855L478.241 283.443L469.226 244.052L513.298 247.082C513.298 247.082 513.298 189.51 493.265 178.4L426.157 191.53Z" fill="#2C3E50"/>
<path d="M442.411 62.4485C442.411 62.4485 442.411 78.5746 437.279 79.5825C432.147 80.5903 421.883 80.5903 418.804 85.6297C415.725 90.6692 442.411 157.189 442.411 157.189L470.123 140.055L479.361 94.7007C479.361 94.7007 466.018 86.6376 466.018 82.6061V64.4642L442.411 62.4485Z" fill="#A0616A"/>
<path opacity="0.1" d="M442.411 62.4485C442.411 62.4485 442.411 78.5746 437.279 79.5825C432.147 80.5903 421.883 80.5903 418.804 85.6297C415.725 90.6692 442.411 157.189 442.411 157.189L470.123 140.055L479.361 94.7007C479.361 94.7007 466.018 86.6376 466.018 82.6061V64.4642L442.411 62.4485Z" fill="black"/>
<path d="M458.15 80.831C471.426 80.831 482.189 69.752 482.189 56.0853C482.189 42.4185 471.426 31.3395 458.15 31.3395C444.874 31.3395 434.111 42.4185 434.111 56.0853C434.111 69.752 444.874 80.831 458.15 80.831Z" fill="#A0616A"/>
<path d="M445.528 137.807C445.528 137.807 436.455 80.831 434.439 80.831C432.422 80.831 404.194 86.8285 402.177 87.8281C400.161 88.8277 393.104 97.8239 393.104 97.8239L407.218 137.807C407.218 137.807 413.267 165.796 417.3 170.793C421.333 175.791 429.398 189.786 425.365 191.785C421.333 193.784 417.3 196.783 421.333 196.783C425.365 196.783 458.634 190.785 460.651 193.784C462.667 196.783 495.936 182.788 495.936 181.789C495.936 180.789 491.904 133.809 491.904 133.809L501.985 110.818L471.741 89.8273L445.528 137.807Z" fill="#FF4581"/>
<path d="M402.962 92.1433L392.805 97.1935C392.805 97.1935 364.365 161.835 362.334 162.846C360.302 163.856 350.145 183.046 349.129 187.086C348.114 191.126 346.082 204.257 343.035 206.277C341.4 207.381 339.705 208.392 337.956 209.307C337.956 209.307 344.051 219.407 347.098 219.407C350.145 219.407 360.302 205.267 360.302 205.267C360.302 205.267 382.648 219.407 388.742 208.297C394.837 197.187 410.073 126.484 410.073 126.484L402.962 92.1433Z" fill="#FF4581"/>
<path d="M482.189 122.654C482.189 122.654 467.573 88.4483 459.22 92.4725C450.868 96.4967 465.485 120.642 474.881 124.666L482.189 122.654Z" fill="#A0616A"/>
<path opacity="0.1" d="M467.875 123.598L481.696 120.424L484.622 135.608C484.622 135.608 497.428 158.625 494.472 168.633C491.517 178.641 473.786 194.653 467.875 185.646C461.965 176.639 457.04 162.628 460.98 154.622C464.92 146.616 470.831 127.602 467.875 123.598Z" fill="black"/>
<path d="M471.036 122.184L485.41 119.01L488.452 134.194C488.452 134.194 501.77 157.211 498.697 167.219C495.624 177.227 477.183 193.239 471.036 184.232C464.889 175.225 459.767 161.214 463.865 153.208C467.963 145.202 474.11 126.187 471.036 122.184Z" fill="#FF4581"/>
<path d="M486.347 50.9541C489.067 45.1485 481.45 35.8409 469.334 30.165C457.218 24.4891 445.191 24.5942 442.471 30.3998C439.752 36.2054 447.369 45.513 459.485 51.1889C471.601 56.8648 483.628 56.7597 486.347 50.9541Z" fill="#2F2E41"/>
<path d="M482.896 34.1676C490.315 34.1676 496.329 27.8367 496.329 20.0271C496.329 12.2176 490.315 5.88671 482.896 5.88671C475.477 5.88671 469.462 12.2176 469.462 20.0271C469.462 27.8367 475.477 34.1676 482.896 34.1676Z" fill="#2F2E41"/>
<path d="M469.661 15.078C469.661 11.416 470.941 7.88339 473.253 5.15899C475.566 2.43458 478.748 0.710586 482.189 0.318299C480.229 0.0918399 478.247 0.304805 476.37 0.943297C474.494 1.58179 472.765 2.63148 471.298 4.024C469.83 5.41651 468.657 7.12059 467.853 9.0252C467.05 10.9298 466.634 12.9922 466.634 15.078C466.634 17.1638 467.05 19.2262 467.853 21.1308C468.657 23.0354 469.83 24.7395 471.298 26.132C472.765 27.5245 474.494 28.5742 476.37 29.2127C478.247 29.8512 480.229 30.0641 482.189 29.8377C478.748 29.4454 475.566 27.7214 473.253 24.997C470.941 22.2726 469.661 18.74 469.661 15.078Z" fill="#2F2E41"/>
<path d="M418.557 229.306H66.46V475.349H418.557V229.306Z" fill="#4388DD"/>
<path d="M139.99 253.344H93.3269V300.008H139.99V253.344Z" fill="#FF4581"/>
<path d="M139.99 329.703H93.3269V374.952H139.99V329.703Z" fill="#D5E6FB"/>
<path d="M139.99 404.647H93.3269V451.31H139.99V404.647Z" fill="#FF4581"/>
<path d="M384.62 267.485H162.615V271.727H384.62V267.485Z" fill="#ECF4FE"/>
<path d="M231.903 281.625H162.615V285.867H231.903V281.625Z" fill="#ECF4FE"/>
<path d="M384.62 342.429H162.615V348.085H384.62V342.429Z" fill="#ECF4FE"/>
<path d="M231.903 356.57H162.615V360.812H231.903V356.57Z" fill="#ECF4FE"/>
<path d="M384.62 418.787H162.615V423.03H384.62V418.787Z" fill="#ECF4FE"/>
<path d="M231.903 432.928H162.615V437.17H231.903V432.928Z" fill="#ECF4FE"/>
<path d="M114.537 484.192C114.537 504.888 102.193 512.114 86.9635 512.114C86.6107 512.114 86.258 512.109 85.9077 512.102C85.2022 512.086 84.5018 512.054 83.8115 512.006C70.0664 511.037 59.3896 503.439 59.3896 484.192C59.3896 464.278 84.9256 439.145 86.8493 437.281L86.8518 437.279C86.9254 437.205 86.9635 437.17 86.9635 437.17C86.9635 437.17 114.537 463.499 114.537 484.192Z" fill="#3EAF7C"/>
<path d="M232.883 509.86C232.883 523.712 224.596 528.548 214.372 528.548C214.135 528.548 213.898 528.544 213.663 528.539C213.19 528.529 212.719 528.507 212.256 528.475C203.029 527.827 195.861 522.742 195.861 509.86C195.861 496.531 213.004 479.71 214.295 478.463L214.297 478.461C214.347 478.412 214.372 478.388 214.372 478.388C214.372 478.388 232.883 496.01 232.883 509.86Z" fill="#3EAF7C"/>
<path d="M85.791 508.96L95.6615 494.916L85.7661 510.503L85.7413 512.114C85.0508 512.099 84.3653 512.066 83.6897 512.018L84.7527 491.311L84.7453 491.149L84.7627 491.121L84.8645 489.163L74.9443 473.538L84.8943 487.696L84.9192 488.111L85.7214 472.465L77.2294 456.319L85.8257 469.721L86.6628 437.281L86.6653 437.17V437.279L86.5262 462.858L94.9809 452.717L86.4914 465.061L86.2678 479.07L94.1638 465.625L86.2356 481.132L86.1114 488.92L97.569 470.207L86.0667 491.637L85.791 508.96Z" fill="#3F3D56"/>
<path d="M214.053 526.437L220.826 517.037L214.036 527.469L214.018 528.548C213.545 528.538 213.074 528.516 212.611 528.484L213.34 514.624L213.335 514.516L213.347 514.497L213.417 513.187L206.609 502.729L213.437 512.205L213.454 512.483L214.005 502.011L208.177 491.205L214.076 500.174L214.651 478.463L214.653 478.388V478.461L214.557 495.581L220.359 488.794L214.533 497.056L214.38 506.432L219.798 497.433L214.358 507.812L214.272 513.024L222.135 500.499L214.242 514.843L214.053 526.437Z" fill="#3F3D56"/>
<defs>
<linearGradient id="paint0_linear" x1="351.309" y1="363.3" x2="303.513" y2="80.7961" gradientUnits="userSpaceOnUse">
<stop stop-color="#FF4581"/>
<stop offset="1" stop-color="#4388DD"/>
</linearGradient>
</defs>
</svg>
