<svg width="120" height="80" viewBox="0 0 120 80" fill="none" xmlns="http://www.w3.org/2000/svg">
<g clip-path="url(#clip0)">
<path d="M57.6481 0.577878C53.6086 1.0474 49.605 1.73363 45.6373 2.61851C41.7594 3.46727 37.9353 4.51467 34.1651 5.74266C30.395 6.97065 26.6786 8.43341 23.1059 10.167C19.6589 11.8284 16.3375 13.8149 13.3572 16.2709C11.903 17.4628 10.5565 18.763 9.22798 20.0813C7.88148 21.4357 6.71452 22.9526 5.49369 24.4334C5.2962 24.6682 5.09872 24.9029 4.90123 25.1377C4.64988 25.4266 4.50626 25.7336 4.50626 26.1129C4.50626 26.474 4.64988 26.8352 4.90123 27.088C5.2962 27.4853 5.90662 27.5937 6.40931 27.377C5.45778 28.605 4.57807 29.9052 3.78812 31.2596C2.81865 32.921 2.0287 34.7088 1.41829 36.5327C0.179507 40.1986 -0.215467 44.0993 0.0538334 47.9458C0.19746 49.9142 0.538573 51.8646 1.05922 53.7607C1.56191 55.5846 2.28005 57.3725 3.14181 59.0519C4.00356 60.7314 5.08076 62.3025 6.26568 63.7652C7.43265 65.2099 8.7612 66.4921 10.1795 67.684C13.1239 70.1219 16.4273 72.0181 19.8923 73.5711C23.4291 75.1603 27.1454 76.3521 30.9156 77.2551C34.7756 78.1941 38.7073 78.8262 42.6571 79.2596C44.6319 79.4763 46.6248 79.6569 48.6176 79.7652C49.5691 79.8194 50.5386 79.8555 51.4901 79.8916C52.0826 79.9097 52.6571 79.9458 53.2495 79.9458C56.0862 79.9097 58.9228 79.8916 61.7774 79.8375C62.1903 79.8375 62.6212 79.7833 63.0341 79.7472C63.9677 79.693 64.8833 79.6208 65.8169 79.5485C67.1634 79.4582 68.5099 79.3679 69.8564 79.2776C70.8258 79.2054 71.7774 79.079 72.7468 78.9706C73.8241 78.8442 74.9012 78.6998 75.9784 78.5372C77.9533 78.2483 79.9102 77.8871 81.8492 77.4537C85.6732 76.623 89.4434 75.4853 93.07 74.0406C96.7145 72.5779 100.215 70.7901 103.501 68.605C105.099 67.5395 106.625 66.3837 108.061 65.1016C109.443 63.8736 110.718 62.5011 111.849 61.0384C114.309 57.8781 116.212 54.3386 117.576 50.5643C118.941 46.772 119.677 42.7449 119.91 38.7359C120.144 34.763 119.659 30.7178 118.33 26.9616C117.002 23.2054 114.901 19.7381 112.316 16.7223C109.838 13.8149 106.84 11.395 103.609 9.37246C102.011 8.37923 100.359 7.49436 98.6535 6.69977C96.8402 5.85102 94.9731 5.09255 93.07 4.40632C89.3537 3.06998 85.5296 2.07675 81.6517 1.3544C77.6661 0.595937 73.6266 0.126411 69.5691 0C68.833 0.0180587 68.061 0 67.2711 0C64.0574 0 60.8438 0.198646 57.6481 0.577878ZM66.2477 3.95485C69.7127 3.91874 73.1598 4.13544 76.6068 4.58691C82.8546 5.45372 89.0305 7.02483 94.8653 9.46275C98.3483 10.9616 101.688 12.8036 104.722 15.0971C106.84 16.7765 108.761 18.6907 110.431 20.8217C111.921 22.8262 113.214 24.9752 114.201 27.2686C115.027 29.3093 115.601 31.4221 115.925 33.5892C116.284 36.605 116.212 39.6388 115.835 42.6366C115.386 45.851 114.56 48.9932 113.339 51.991C112.226 54.5914 110.826 57.0655 109.138 59.3228C107.54 61.3454 105.727 63.1693 103.698 64.7585C100.341 67.3228 96.6607 69.4176 92.7828 71.0971C86.4452 73.7697 79.7486 75.377 72.9443 76.298C73.07 76.2799 73.1777 76.2618 73.3034 76.2438C72.1005 76.4063 70.8797 76.5869 69.6589 76.6772C68.9587 76.7314 68.2406 76.7855 67.5404 76.8397C65.781 76.9842 64.0395 77.1106 62.2801 77.2551C61.3644 77.3273 60.4668 77.3273 59.5512 77.3454C57.7199 77.3815 55.8887 77.4176 54.0574 77.4537C52.3519 77.4898 50.6463 77.4176 48.9407 77.3273C45.9605 77.1828 42.9802 76.8939 40.0179 76.5147C33.7702 75.6478 27.5763 74.2031 21.7414 71.7472C18.5099 70.3567 15.4219 68.6591 12.6212 66.5102C10.7899 65.0655 9.12026 63.4582 7.684 61.6162C6.42726 59.9368 5.36802 58.1309 4.52421 56.1986C3.62655 54.0135 3.01613 51.7381 2.67502 49.4086C2.31595 46.9526 2.298 44.4063 2.62116 41.9142C2.94432 39.6569 3.55473 37.4718 4.41649 35.3589C5.42188 33.0293 6.71452 30.8623 8.24055 28.8578C10.1616 26.3837 12.3878 24.1806 14.8474 22.2483C16.6248 20.8939 18.4919 19.684 20.4129 18.5824C21.4003 18.0045 22.4237 17.4808 23.447 16.9571C23.8779 16.7404 24.3267 16.5237 24.7576 16.3251C26.3375 15.6208 27.9174 14.8984 29.4973 14.1941C30.8797 13.6704 32.2621 13.1648 33.6445 12.6411C34.0395 12.4966 34.4344 12.3341 34.8294 12.2077C35.5117 12.009 36.1759 11.7923 36.8582 11.5937C38.0431 11.2325 39.2459 10.8352 40.4488 10.5102C41.9569 10.1309 43.465 9.73363 44.9551 9.3544C45.2424 9.28217 45.5296 9.24605 45.7989 9.17381C46.4991 9.02934 47.1634 8.88487 47.8276 8.75846C48.3662 8.65011 48.9048 8.54176 49.4434 8.43341C50.3411 8.25282 51.2567 8.12641 52.1723 8C52.1185 8 52.0646 8.01806 51.9928 8.01806C53.1418 7.87359 54.2908 7.76524 55.4398 7.693C56.6786 7.62077 57.9174 7.63883 59.1562 7.693C59.605 7.71106 60.0359 7.76524 60.4847 7.78329C61.0054 7.81941 61.526 7.85553 62.0287 7.90971C62.1723 7.92776 62.3339 7.96388 62.4775 7.98194C62.6391 8 62.8007 7.85553 62.8546 7.693C62.9084 7.51241 62.8187 7.34989 62.675 7.25959C62.6032 7.20542 62.4416 7.18736 62.3698 7.1693C62.2083 7.13318 62.0287 7.11512 61.8492 7.07901C61.6697 7.06095 61.4901 7.02483 61.3106 7.00677C60.8618 6.9526 60.4309 6.89842 59.982 6.84424C58.6894 6.68171 57.3968 6.57336 56.0862 6.53725C53.3573 6.48307 50.6463 6.77201 47.9713 7.22348C47.0556 7.386 46.14 7.54853 45.2064 7.71106C44.8474 7.76524 44.5063 7.83747 44.1472 7.90971C42.6212 8.25282 41.0772 8.59594 39.5511 8.93905C39.1023 9.0474 38.6355 9.19187 38.1867 9.31828C37.2531 9.57111 36.3195 9.84199 35.386 10.0948C34.991 10.2032 34.5781 10.2935 34.1831 10.4379C33.5188 10.6727 32.8546 10.9074 32.1903 11.1242C31.3106 11.4311 30.4488 11.7381 29.5691 12.0271C29.1741 12.1716 28.7792 12.298 28.4021 12.4786C26.8581 13.1287 25.3142 13.7968 23.7522 14.465C22.6571 14.9345 21.5799 15.4763 20.5027 16.0361C19.0125 16.8126 17.5583 17.6433 16.14 18.5643C19.7127 15.9458 23.6804 13.8691 27.7379 12.1354C32.1364 10.2935 36.6607 8.84876 41.2567 7.63883C46.0323 6.37472 50.8976 5.39955 55.7989 4.73138C59.2998 4.26185 62.7648 3.99097 66.2477 3.95485ZM55.8169 4.71332C55.7091 4.73138 55.6194 4.73138 55.5117 4.74944C55.6194 4.73138 55.7091 4.71332 55.8169 4.71332ZM27.7199 12.1535C27.6481 12.1896 27.5583 12.2257 27.4865 12.2438C27.5763 12.2077 27.6481 12.1716 27.7199 12.1535ZM14.7576 22.3205C14.7217 22.3567 14.6858 22.3747 14.6499 22.4108C14.6858 22.3747 14.7217 22.3386 14.7576 22.3205ZM12.693 66.6366C12.7289 66.6546 12.7468 66.6727 12.7827 66.7088C12.7468 66.6907 12.7109 66.6727 12.693 66.6366ZM92.6212 71.1512C92.5494 71.1874 92.4955 71.2054 92.4237 71.2415C92.4955 71.2235 92.5673 71.1874 92.6212 71.1512Z" fill="#3EAF7C"/>
</g>
<defs>
<clipPath id="clip0">
<rect width="120" height="80" fill="white"/>
</clipPath>
</defs>
</svg>
